<?xml version="1.0" encoding="utf-8" standalone="no"?>
<!DOCTYPE svg PUBLIC "-//W3C//DTD SVG 1.1//EN"
  "http://www.w3.org/Graphics/SVG/1.1/DTD/svg11.dtd">
<!-- Created with matplotlib (https://matplotlib.org/) -->
<svg height="864pt" version="1.1" viewBox="0 0 1152 864" width="1152pt" xmlns="http://www.w3.org/2000/svg" xmlns:xlink="http://www.w3.org/1999/xlink">
 <defs>
  <style type="text/css">
*{stroke-linecap:butt;stroke-linejoin:round;}
  </style>
 </defs>
 <g id="figure_1">
  <g id="patch_1">
   <path d="M 0 864 
L 1152 864 
L 1152 0 
L 0 0 
z
" style="fill:#ffffff;"/>
  </g>
  <g id="axes_1">
   <g id="patch_2">
    <path d="M 58.87 758.818144 
L 1136.88 758.818144 
L 1136.88 49.12 
L 58.87 49.12 
z
" style="fill:#ffffff;"/>
   </g>
   <g id="patch_3">
    <path clip-path="url(#pa65916a7cc)" d="M 107.870455 758.818144 
L 144.167088 758.818144 
L 144.167088 758.818144 
L 107.870455 758.818144 
z
" style="fill:#8635d5;"/>
   </g>
   <g id="patch_4">
    <path clip-path="url(#pa65916a7cc)" d="M 198.612037 758.818144 
L 234.90867 758.818144 
L 234.90867 758.818144 
L 198.612037 758.818144 
z
" style="fill:#8635d5;"/>
   </g>
   <g id="patch_5">
    <path clip-path="url(#pa65916a7cc)" d="M 289.35362 758.818144 
L 325.650253 758.818144 
L 325.650253 758.818144 
L 289.35362 758.818144 
z
" style="fill:#8635d5;"/>
   </g>
   <g id="patch_6">
    <path clip-path="url(#pa65916a7cc)" d="M 380.095202 758.818144 
L 416.391835 758.818144 
L 416.391835 735.676247 
L 380.095202 735.676247 
z
" style="fill:#8635d5;"/>
   </g>
   <g id="patch_7">
    <path clip-path="url(#pa65916a7cc)" d="M 470.836785 758.818144 
L 507.133418 758.818144 
L 507.133418 758.818144 
L 470.836785 758.818144 
z
" style="fill:#8635d5;"/>
   </g>
   <g id="patch_8">
    <path clip-path="url(#pa65916a7cc)" d="M 561.578367 758.818144 
L 597.875 758.818144 
L 597.875 483.19017 
L 561.578367 483.19017 
z
" style="fill:#8635d5;"/>
   </g>
   <g id="patch_9">
    <path clip-path="url(#pa65916a7cc)" d="M 652.319949 758.818144 
L 688.616582 758.818144 
L 688.616582 423.659635 
L 652.319949 423.659635 
z
" style="fill:#8635d5;"/>
   </g>
   <g id="patch_10">
    <path clip-path="url(#pa65916a7cc)" d="M 743.061532 758.818144 
L 779.358165 758.818144 
L 779.358165 289.277032 
L 743.061532 289.277032 
z
" style="fill:#8635d5;"/>
   </g>
   <g id="patch_11">
    <path clip-path="url(#pa65916a7cc)" d="M 833.803114 758.818144 
L 870.099747 758.818144 
L 870.099747 269.646319 
L 833.803114 269.646319 
z
" style="fill:#8635d5;"/>
   </g>
   <g id="patch_12">
    <path clip-path="url(#pa65916a7cc)" d="M 924.544697 758.818144 
L 960.84133 758.818144 
L 960.84133 164.151189 
L 924.544697 164.151189 
z
" style="fill:#8635d5;"/>
   </g>
   <g id="patch_13">
    <path clip-path="url(#pa65916a7cc)" d="M 1015.286279 758.818144 
L 1051.582912 758.818144 
L 1051.582912 130.954536 
L 1015.286279 130.954536 
z
" style="fill:#8635d5;"/>
   </g>
   <g id="patch_14">
    <path clip-path="url(#pa65916a7cc)" d="M 144.167088 758.818144 
L 180.463721 758.818144 
L 180.463721 758.818144 
L 144.167088 758.818144 
z
" style="fill:#2dc574;"/>
   </g>
   <g id="patch_15">
    <path clip-path="url(#pa65916a7cc)" d="M 234.90867 758.818144 
L 271.205303 758.818144 
L 271.205303 754.987761 
L 234.90867 754.987761 
z
" style="fill:#2dc574;"/>
   </g>
   <g id="patch_16">
    <path clip-path="url(#pa65916a7cc)" d="M 325.650253 758.818144 
L 361.946886 758.818144 
L 361.946886 756.583754 
L 325.650253 756.583754 
z
" style="fill:#2dc574;"/>
   </g>
   <g id="patch_17">
    <path clip-path="url(#pa65916a7cc)" d="M 416.391835 758.818144 
L 452.688468 758.818144 
L 452.688468 617.413173 
L 416.391835 617.413173 
z
" style="fill:#2dc574;"/>
   </g>
   <g id="patch_18">
    <path clip-path="url(#pa65916a7cc)" d="M 507.133418 758.818144 
L 543.430051 758.818144 
L 543.430051 741.90062 
L 507.133418 741.90062 
z
" style="fill:#2dc574;"/>
   </g>
   <g id="patch_19">
    <path clip-path="url(#pa65916a7cc)" d="M 597.875 758.818144 
L 634.171633 758.818144 
L 634.171633 512.077641 
L 597.875 512.077641 
z
" style="fill:#2dc574;"/>
   </g>
   <g id="patch_20">
    <path clip-path="url(#pa65916a7cc)" d="M 688.616582 758.818144 
L 724.913215 758.818144 
L 724.913215 638.001482 
L 688.616582 638.001482 
z
" style="fill:#2dc574;"/>
   </g>
   <g id="patch_21">
    <path clip-path="url(#pa65916a7cc)" d="M 779.358165 758.818144 
L 815.654798 758.818144 
L 815.654798 83.393948 
L 779.358165 83.393948 
z
" style="fill:#2dc574;"/>
   </g>
   <g id="patch_22">
    <path clip-path="url(#pa65916a7cc)" d="M 870.099747 758.818144 
L 906.39638 758.818144 
L 906.39638 160.161206 
L 870.099747 160.161206 
z
" style="fill:#2dc574;"/>
   </g>
   <g id="patch_23">
    <path clip-path="url(#pa65916a7cc)" d="M 960.84133 758.818144 
L 997.137963 758.818144 
L 997.137963 82.91515 
L 960.84133 82.91515 
z
" style="fill:#2dc574;"/>
   </g>
   <g id="patch_24">
    <path clip-path="url(#pa65916a7cc)" d="M 1051.582912 758.818144 
L 1087.879545 758.818144 
L 1087.879545 177.876727 
L 1051.582912 177.876727 
z
" style="fill:#2dc574;"/>
   </g>
   <g id="matplotlib.axis_1">
    <g id="xtick_1">
     <g id="line2d_1">
      <path clip-path="url(#pa65916a7cc)" d="M 144.167088 758.818144 
L 144.167088 49.12 
" style="fill:none;stroke:#808080;stroke-dasharray:0.925,0.4;stroke-dashoffset:0;stroke-width:0.25;"/>
     </g>
     <g id="line2d_2">
      <defs>
       <path d="M 0 0 
L 0 3.5 
" id="md36e3675f2" style="stroke:#000000;stroke-width:0.8;"/>
      </defs>
      <g>
       <use style="stroke:#000000;stroke-width:0.8;" x="144.167088" xlink:href="#md36e3675f2" y="758.818144"/>
      </g>
     </g>
     <g id="text_1">
      <!-- 1user_RO -->
      <defs>
       <path d="M 12.40625 8.296875 
L 28.515625 8.296875 
L 28.515625 63.921875 
L 10.984375 60.40625 
L 10.984375 69.390625 
L 28.421875 72.90625 
L 38.28125 72.90625 
L 38.28125 8.296875 
L 54.390625 8.296875 
L 54.390625 0 
L 12.40625 0 
z
" id="DejaVuSans-49"/>
       <path d="M 8.5 21.578125 
L 8.5 54.6875 
L 17.484375 54.6875 
L 17.484375 21.921875 
Q 17.484375 14.15625 20.5 10.265625 
Q 23.53125 6.390625 29.59375 6.390625 
Q 36.859375 6.390625 41.078125 11.03125 
Q 45.3125 15.671875 45.3125 23.6875 
L 45.3125 54.6875 
L 54.296875 54.6875 
L 54.296875 0 
L 45.3125 0 
L 45.3125 8.40625 
Q 42.046875 3.421875 37.71875 1 
Q 33.40625 -1.421875 27.6875 -1.421875 
Q 18.265625 -1.421875 13.375 4.4375 
Q 8.5 10.296875 8.5 21.578125 
z
M 31.109375 56 
z
" id="DejaVuSans-117"/>
       <path d="M 44.28125 53.078125 
L 44.28125 44.578125 
Q 40.484375 46.53125 36.375 47.5 
Q 32.28125 48.484375 27.875 48.484375 
Q 21.1875 48.484375 17.84375 46.4375 
Q 14.5 44.390625 14.5 40.28125 
Q 14.5 37.15625 16.890625 35.375 
Q 19.28125 33.59375 26.515625 31.984375 
L 29.59375 31.296875 
Q 39.15625 29.25 43.1875 25.515625 
Q 47.21875 21.78125 47.21875 15.09375 
Q 47.21875 7.46875 41.1875 3.015625 
Q 35.15625 -1.421875 24.609375 -1.421875 
Q 20.21875 -1.421875 15.453125 -0.5625 
Q 10.6875 0.296875 5.421875 2 
L 5.421875 11.28125 
Q 10.40625 8.6875 15.234375 7.390625 
Q 20.0625 6.109375 24.8125 6.109375 
Q 31.15625 6.109375 34.5625 8.28125 
Q 37.984375 10.453125 37.984375 14.40625 
Q 37.984375 18.0625 35.515625 20.015625 
Q 33.0625 21.96875 24.703125 23.78125 
L 21.578125 24.515625 
Q 13.234375 26.265625 9.515625 29.90625 
Q 5.8125 33.546875 5.8125 39.890625 
Q 5.8125 47.609375 11.28125 51.796875 
Q 16.75 56 26.8125 56 
Q 31.78125 56 36.171875 55.265625 
Q 40.578125 54.546875 44.28125 53.078125 
z
" id="DejaVuSans-115"/>
       <path d="M 56.203125 29.59375 
L 56.203125 25.203125 
L 14.890625 25.203125 
Q 15.484375 15.921875 20.484375 11.0625 
Q 25.484375 6.203125 34.421875 6.203125 
Q 39.59375 6.203125 44.453125 7.46875 
Q 49.3125 8.734375 54.109375 11.28125 
L 54.109375 2.78125 
Q 49.265625 0.734375 44.1875 -0.34375 
Q 39.109375 -1.421875 33.890625 -1.421875 
Q 20.796875 -1.421875 13.15625 6.1875 
Q 5.515625 13.8125 5.515625 26.8125 
Q 5.515625 40.234375 12.765625 48.109375 
Q 20.015625 56 32.328125 56 
Q 43.359375 56 49.78125 48.890625 
Q 56.203125 41.796875 56.203125 29.59375 
z
M 47.21875 32.234375 
Q 47.125 39.59375 43.09375 43.984375 
Q 39.0625 48.390625 32.421875 48.390625 
Q 24.90625 48.390625 20.390625 44.140625 
Q 15.875 39.890625 15.1875 32.171875 
z
" id="DejaVuSans-101"/>
       <path d="M 41.109375 46.296875 
Q 39.59375 47.171875 37.8125 47.578125 
Q 36.03125 48 33.890625 48 
Q 26.265625 48 22.1875 43.046875 
Q 18.109375 38.09375 18.109375 28.8125 
L 18.109375 0 
L 9.078125 0 
L 9.078125 54.6875 
L 18.109375 54.6875 
L 18.109375 46.1875 
Q 20.953125 51.171875 25.484375 53.578125 
Q 30.03125 56 36.53125 56 
Q 37.453125 56 38.578125 55.875 
Q 39.703125 55.765625 41.0625 55.515625 
z
" id="DejaVuSans-114"/>
       <path d="M 50.984375 -16.609375 
L 50.984375 -23.578125 
L -0.984375 -23.578125 
L -0.984375 -16.609375 
z
" id="DejaVuSans-95"/>
       <path d="M 44.390625 34.1875 
Q 47.5625 33.109375 50.5625 29.59375 
Q 53.5625 26.078125 56.59375 19.921875 
L 66.609375 0 
L 56 0 
L 46.6875 18.703125 
Q 43.0625 26.03125 39.671875 28.421875 
Q 36.28125 30.8125 30.421875 30.8125 
L 19.671875 30.8125 
L 19.671875 0 
L 9.8125 0 
L 9.8125 72.90625 
L 32.078125 72.90625 
Q 44.578125 72.90625 50.734375 67.671875 
Q 56.890625 62.453125 56.890625 51.90625 
Q 56.890625 45.015625 53.6875 40.46875 
Q 50.484375 35.9375 44.390625 34.1875 
z
M 19.671875 64.796875 
L 19.671875 38.921875 
L 32.078125 38.921875 
Q 39.203125 38.921875 42.84375 42.21875 
Q 46.484375 45.515625 46.484375 51.90625 
Q 46.484375 58.296875 42.84375 61.546875 
Q 39.203125 64.796875 32.078125 64.796875 
z
" id="DejaVuSans-82"/>
       <path d="M 39.40625 66.21875 
Q 28.65625 66.21875 22.328125 58.203125 
Q 16.015625 50.203125 16.015625 36.375 
Q 16.015625 22.609375 22.328125 14.59375 
Q 28.65625 6.59375 39.40625 6.59375 
Q 50.140625 6.59375 56.421875 14.59375 
Q 62.703125 22.609375 62.703125 36.375 
Q 62.703125 50.203125 56.421875 58.203125 
Q 50.140625 66.21875 39.40625 66.21875 
z
M 39.40625 74.21875 
Q 54.734375 74.21875 63.90625 63.9375 
Q 73.09375 53.65625 73.09375 36.375 
Q 73.09375 19.140625 63.90625 8.859375 
Q 54.734375 -1.421875 39.40625 -1.421875 
Q 24.03125 -1.421875 14.8125 8.828125 
Q 5.609375 19.09375 5.609375 36.375 
Q 5.609375 53.65625 14.8125 63.9375 
Q 24.03125 74.21875 39.40625 74.21875 
z
" id="DejaVuSans-79"/>
      </defs>
      <g transform="translate(116.844845 808.412315)rotate(-30)scale(0.14 -0.14)">
       <use xlink:href="#DejaVuSans-49"/>
       <use x="63.623047" xlink:href="#DejaVuSans-117"/>
       <use x="127.001953" xlink:href="#DejaVuSans-115"/>
       <use x="179.101562" xlink:href="#DejaVuSans-101"/>
       <use x="240.625" xlink:href="#DejaVuSans-114"/>
       <use x="281.738281" xlink:href="#DejaVuSans-95"/>
       <use x="331.738281" xlink:href="#DejaVuSans-82"/>
       <use x="401.220703" xlink:href="#DejaVuSans-79"/>
      </g>
     </g>
    </g>
    <g id="xtick_2">
     <g id="line2d_3">
      <path clip-path="url(#pa65916a7cc)" d="M 234.90867 758.818144 
L 234.90867 49.12 
" style="fill:none;stroke:#808080;stroke-dasharray:0.925,0.4;stroke-dashoffset:0;stroke-width:0.25;"/>
     </g>
     <g id="line2d_4">
      <g>
       <use style="stroke:#000000;stroke-width:0.8;" x="234.90867" xlink:href="#md36e3675f2" y="758.818144"/>
      </g>
     </g>
     <g id="text_2">
      <!-- 100users_RO -->
      <defs>
       <path d="M 31.78125 66.40625 
Q 24.171875 66.40625 20.328125 58.90625 
Q 16.5 51.421875 16.5 36.375 
Q 16.5 21.390625 20.328125 13.890625 
Q 24.171875 6.390625 31.78125 6.390625 
Q 39.453125 6.390625 43.28125 13.890625 
Q 47.125 21.390625 47.125 36.375 
Q 47.125 51.421875 43.28125 58.90625 
Q 39.453125 66.40625 31.78125 66.40625 
z
M 31.78125 74.21875 
Q 44.046875 74.21875 50.515625 64.515625 
Q 56.984375 54.828125 56.984375 36.375 
Q 56.984375 17.96875 50.515625 8.265625 
Q 44.046875 -1.421875 31.78125 -1.421875 
Q 19.53125 -1.421875 13.0625 8.265625 
Q 6.59375 17.96875 6.59375 36.375 
Q 6.59375 54.828125 13.0625 64.515625 
Q 19.53125 74.21875 31.78125 74.21875 
z
" id="DejaVuSans-48"/>
      </defs>
      <g transform="translate(196.71429 820.966377)rotate(-30)scale(0.14 -0.14)">
       <use xlink:href="#DejaVuSans-49"/>
       <use x="63.623047" xlink:href="#DejaVuSans-48"/>
       <use x="127.246094" xlink:href="#DejaVuSans-48"/>
       <use x="190.869141" xlink:href="#DejaVuSans-117"/>
       <use x="254.248047" xlink:href="#DejaVuSans-115"/>
       <use x="306.347656" xlink:href="#DejaVuSans-101"/>
       <use x="367.871094" xlink:href="#DejaVuSans-114"/>
       <use x="408.984375" xlink:href="#DejaVuSans-115"/>
       <use x="461.083984" xlink:href="#DejaVuSans-95"/>
       <use x="511.083984" xlink:href="#DejaVuSans-82"/>
       <use x="580.566406" xlink:href="#DejaVuSans-79"/>
      </g>
     </g>
    </g>
    <g id="xtick_3">
     <g id="line2d_5">
      <path clip-path="url(#pa65916a7cc)" d="M 325.650253 758.818144 
L 325.650253 49.12 
" style="fill:none;stroke:#808080;stroke-dasharray:0.925,0.4;stroke-dashoffset:0;stroke-width:0.25;"/>
     </g>
     <g id="line2d_6">
      <g>
       <use style="stroke:#000000;stroke-width:0.8;" x="325.650253" xlink:href="#md36e3675f2" y="758.818144"/>
      </g>
     </g>
     <g id="text_3">
      <!-- 100users_RW -->
      <defs>
       <path d="M 3.328125 72.90625 
L 13.28125 72.90625 
L 28.609375 11.28125 
L 43.890625 72.90625 
L 54.984375 72.90625 
L 70.3125 11.28125 
L 85.59375 72.90625 
L 95.609375 72.90625 
L 77.296875 0 
L 64.890625 0 
L 49.515625 63.28125 
L 33.984375 0 
L 21.578125 0 
z
" id="DejaVuSans-87"/>
      </defs>
      <g transform="translate(286.237754 822.37294)rotate(-30)scale(0.14 -0.14)">
       <use xlink:href="#DejaVuSans-49"/>
       <use x="63.623047" xlink:href="#DejaVuSans-48"/>
       <use x="127.246094" xlink:href="#DejaVuSans-48"/>
       <use x="190.869141" xlink:href="#DejaVuSans-117"/>
       <use x="254.248047" xlink:href="#DejaVuSans-115"/>
       <use x="306.347656" xlink:href="#DejaVuSans-101"/>
       <use x="367.871094" xlink:href="#DejaVuSans-114"/>
       <use x="408.984375" xlink:href="#DejaVuSans-115"/>
       <use x="461.083984" xlink:href="#DejaVuSans-95"/>
       <use x="511.083984" xlink:href="#DejaVuSans-82"/>
       <use x="580.503906" xlink:href="#DejaVuSans-87"/>
      </g>
     </g>
    </g>
    <g id="xtick_4">
     <g id="line2d_7">
      <path clip-path="url(#pa65916a7cc)" d="M 416.391835 758.818144 
L 416.391835 49.12 
" style="fill:none;stroke:#808080;stroke-dasharray:0.925,0.4;stroke-dashoffset:0;stroke-width:0.25;"/>
     </g>
     <g id="line2d_8">
      <g>
       <use style="stroke:#000000;stroke-width:0.8;" x="416.391835" xlink:href="#md36e3675f2" y="758.818144"/>
      </g>
     </g>
     <g id="text_4">
      <!-- 250users_RO -->
      <defs>
       <path d="M 19.1875 8.296875 
L 53.609375 8.296875 
L 53.609375 0 
L 7.328125 0 
L 7.328125 8.296875 
Q 12.9375 14.109375 22.625 23.890625 
Q 32.328125 33.6875 34.8125 36.53125 
Q 39.546875 41.84375 41.421875 45.53125 
Q 43.3125 49.21875 43.3125 52.78125 
Q 43.3125 58.59375 39.234375 62.25 
Q 35.15625 65.921875 28.609375 65.921875 
Q 23.96875 65.921875 18.8125 64.3125 
Q 13.671875 62.703125 7.8125 59.421875 
L 7.8125 69.390625 
Q 13.765625 71.78125 18.9375 73 
Q 24.125 74.21875 28.421875 74.21875 
Q 39.75 74.21875 46.484375 68.546875 
Q 53.21875 62.890625 53.21875 53.421875 
Q 53.21875 48.921875 51.53125 44.890625 
Q 49.859375 40.875 45.40625 35.40625 
Q 44.1875 33.984375 37.640625 27.21875 
Q 31.109375 20.453125 19.1875 8.296875 
z
" id="DejaVuSans-50"/>
       <path d="M 10.796875 72.90625 
L 49.515625 72.90625 
L 49.515625 64.59375 
L 19.828125 64.59375 
L 19.828125 46.734375 
Q 21.96875 47.46875 24.109375 47.828125 
Q 26.265625 48.1875 28.421875 48.1875 
Q 40.625 48.1875 47.75 41.5 
Q 54.890625 34.8125 54.890625 23.390625 
Q 54.890625 11.625 47.5625 5.09375 
Q 40.234375 -1.421875 26.90625 -1.421875 
Q 22.3125 -1.421875 17.546875 -0.640625 
Q 12.796875 0.140625 7.71875 1.703125 
L 7.71875 11.625 
Q 12.109375 9.234375 16.796875 8.0625 
Q 21.484375 6.890625 26.703125 6.890625 
Q 35.15625 6.890625 40.078125 11.328125 
Q 45.015625 15.765625 45.015625 23.390625 
Q 45.015625 31 40.078125 35.4375 
Q 35.15625 39.890625 26.703125 39.890625 
Q 22.75 39.890625 18.8125 39.015625 
Q 14.890625 38.140625 10.796875 36.28125 
z
" id="DejaVuSans-53"/>
      </defs>
      <g transform="translate(378.197455 820.966377)rotate(-30)scale(0.14 -0.14)">
       <use xlink:href="#DejaVuSans-50"/>
       <use x="63.623047" xlink:href="#DejaVuSans-53"/>
       <use x="127.246094" xlink:href="#DejaVuSans-48"/>
       <use x="190.869141" xlink:href="#DejaVuSans-117"/>
       <use x="254.248047" xlink:href="#DejaVuSans-115"/>
       <use x="306.347656" xlink:href="#DejaVuSans-101"/>
       <use x="367.871094" xlink:href="#DejaVuSans-114"/>
       <use x="408.984375" xlink:href="#DejaVuSans-115"/>
       <use x="461.083984" xlink:href="#DejaVuSans-95"/>
       <use x="511.083984" xlink:href="#DejaVuSans-82"/>
       <use x="580.566406" xlink:href="#DejaVuSans-79"/>
      </g>
     </g>
    </g>
    <g id="xtick_5">
     <g id="line2d_9">
      <path clip-path="url(#pa65916a7cc)" d="M 507.133418 758.818144 
L 507.133418 49.12 
" style="fill:none;stroke:#808080;stroke-dasharray:0.925,0.4;stroke-dashoffset:0;stroke-width:0.25;"/>
     </g>
     <g id="line2d_10">
      <g>
       <use style="stroke:#000000;stroke-width:0.8;" x="507.133418" xlink:href="#md36e3675f2" y="758.818144"/>
      </g>
     </g>
     <g id="text_5">
      <!-- 250users_RW -->
      <g transform="translate(467.720919 822.37294)rotate(-30)scale(0.14 -0.14)">
       <use xlink:href="#DejaVuSans-50"/>
       <use x="63.623047" xlink:href="#DejaVuSans-53"/>
       <use x="127.246094" xlink:href="#DejaVuSans-48"/>
       <use x="190.869141" xlink:href="#DejaVuSans-117"/>
       <use x="254.248047" xlink:href="#DejaVuSans-115"/>
       <use x="306.347656" xlink:href="#DejaVuSans-101"/>
       <use x="367.871094" xlink:href="#DejaVuSans-114"/>
       <use x="408.984375" xlink:href="#DejaVuSans-115"/>
       <use x="461.083984" xlink:href="#DejaVuSans-95"/>
       <use x="511.083984" xlink:href="#DejaVuSans-82"/>
       <use x="580.503906" xlink:href="#DejaVuSans-87"/>
      </g>
     </g>
    </g>
    <g id="xtick_6">
     <g id="line2d_11">
      <path clip-path="url(#pa65916a7cc)" d="M 597.875 758.818144 
L 597.875 49.12 
" style="fill:none;stroke:#808080;stroke-dasharray:0.925,0.4;stroke-dashoffset:0;stroke-width:0.25;"/>
     </g>
     <g id="line2d_12">
      <g>
       <use style="stroke:#000000;stroke-width:0.8;" x="597.875" xlink:href="#md36e3675f2" y="758.818144"/>
      </g>
     </g>
     <g id="text_6">
      <!-- 500users_RO -->
      <g transform="translate(559.68062 820.966377)rotate(-30)scale(0.14 -0.14)">
       <use xlink:href="#DejaVuSans-53"/>
       <use x="63.623047" xlink:href="#DejaVuSans-48"/>
       <use x="127.246094" xlink:href="#DejaVuSans-48"/>
       <use x="190.869141" xlink:href="#DejaVuSans-117"/>
       <use x="254.248047" xlink:href="#DejaVuSans-115"/>
       <use x="306.347656" xlink:href="#DejaVuSans-101"/>
       <use x="367.871094" xlink:href="#DejaVuSans-114"/>
       <use x="408.984375" xlink:href="#DejaVuSans-115"/>
       <use x="461.083984" xlink:href="#DejaVuSans-95"/>
       <use x="511.083984" xlink:href="#DejaVuSans-82"/>
       <use x="580.566406" xlink:href="#DejaVuSans-79"/>
      </g>
     </g>
    </g>
    <g id="xtick_7">
     <g id="line2d_13">
      <path clip-path="url(#pa65916a7cc)" d="M 688.616582 758.818144 
L 688.616582 49.12 
" style="fill:none;stroke:#808080;stroke-dasharray:0.925,0.4;stroke-dashoffset:0;stroke-width:0.25;"/>
     </g>
     <g id="line2d_14">
      <g>
       <use style="stroke:#000000;stroke-width:0.8;" x="688.616582" xlink:href="#md36e3675f2" y="758.818144"/>
      </g>
     </g>
     <g id="text_7">
      <!-- 500users_RW -->
      <g transform="translate(649.204084 822.37294)rotate(-30)scale(0.14 -0.14)">
       <use xlink:href="#DejaVuSans-53"/>
       <use x="63.623047" xlink:href="#DejaVuSans-48"/>
       <use x="127.246094" xlink:href="#DejaVuSans-48"/>
       <use x="190.869141" xlink:href="#DejaVuSans-117"/>
       <use x="254.248047" xlink:href="#DejaVuSans-115"/>
       <use x="306.347656" xlink:href="#DejaVuSans-101"/>
       <use x="367.871094" xlink:href="#DejaVuSans-114"/>
       <use x="408.984375" xlink:href="#DejaVuSans-115"/>
       <use x="461.083984" xlink:href="#DejaVuSans-95"/>
       <use x="511.083984" xlink:href="#DejaVuSans-82"/>
       <use x="580.503906" xlink:href="#DejaVuSans-87"/>
      </g>
     </g>
    </g>
    <g id="xtick_8">
     <g id="line2d_15">
      <path clip-path="url(#pa65916a7cc)" d="M 779.358165 758.818144 
L 779.358165 49.12 
" style="fill:none;stroke:#808080;stroke-dasharray:0.925,0.4;stroke-dashoffset:0;stroke-width:0.25;"/>
     </g>
     <g id="line2d_16">
      <g>
       <use style="stroke:#000000;stroke-width:0.8;" x="779.358165" xlink:href="#md36e3675f2" y="758.818144"/>
      </g>
     </g>
     <g id="text_8">
      <!-- 750users_RO -->
      <defs>
       <path d="M 8.203125 72.90625 
L 55.078125 72.90625 
L 55.078125 68.703125 
L 28.609375 0 
L 18.3125 0 
L 43.21875 64.59375 
L 8.203125 64.59375 
z
" id="DejaVuSans-55"/>
      </defs>
      <g transform="translate(741.163785 820.966377)rotate(-30)scale(0.14 -0.14)">
       <use xlink:href="#DejaVuSans-55"/>
       <use x="63.623047" xlink:href="#DejaVuSans-53"/>
       <use x="127.246094" xlink:href="#DejaVuSans-48"/>
       <use x="190.869141" xlink:href="#DejaVuSans-117"/>
       <use x="254.248047" xlink:href="#DejaVuSans-115"/>
       <use x="306.347656" xlink:href="#DejaVuSans-101"/>
       <use x="367.871094" xlink:href="#DejaVuSans-114"/>
       <use x="408.984375" xlink:href="#DejaVuSans-115"/>
       <use x="461.083984" xlink:href="#DejaVuSans-95"/>
       <use x="511.083984" xlink:href="#DejaVuSans-82"/>
       <use x="580.566406" xlink:href="#DejaVuSans-79"/>
      </g>
     </g>
    </g>
    <g id="xtick_9">
     <g id="line2d_17">
      <path clip-path="url(#pa65916a7cc)" d="M 870.099747 758.818144 
L 870.099747 49.12 
" style="fill:none;stroke:#808080;stroke-dasharray:0.925,0.4;stroke-dashoffset:0;stroke-width:0.25;"/>
     </g>
     <g id="line2d_18">
      <g>
       <use style="stroke:#000000;stroke-width:0.8;" x="870.099747" xlink:href="#md36e3675f2" y="758.818144"/>
      </g>
     </g>
     <g id="text_9">
      <!-- 750users_RW -->
      <g transform="translate(830.687249 822.37294)rotate(-30)scale(0.14 -0.14)">
       <use xlink:href="#DejaVuSans-55"/>
       <use x="63.623047" xlink:href="#DejaVuSans-53"/>
       <use x="127.246094" xlink:href="#DejaVuSans-48"/>
       <use x="190.869141" xlink:href="#DejaVuSans-117"/>
       <use x="254.248047" xlink:href="#DejaVuSans-115"/>
       <use x="306.347656" xlink:href="#DejaVuSans-101"/>
       <use x="367.871094" xlink:href="#DejaVuSans-114"/>
       <use x="408.984375" xlink:href="#DejaVuSans-115"/>
       <use x="461.083984" xlink:href="#DejaVuSans-95"/>
       <use x="511.083984" xlink:href="#DejaVuSans-82"/>
       <use x="580.503906" xlink:href="#DejaVuSans-87"/>
      </g>
     </g>
    </g>
    <g id="xtick_10">
     <g id="line2d_19">
      <path clip-path="url(#pa65916a7cc)" d="M 960.84133 758.818144 
L 960.84133 49.12 
" style="fill:none;stroke:#808080;stroke-dasharray:0.925,0.4;stroke-dashoffset:0;stroke-width:0.25;"/>
     </g>
     <g id="line2d_20">
      <g>
       <use style="stroke:#000000;stroke-width:0.8;" x="960.84133" xlink:href="#md36e3675f2" y="758.818144"/>
      </g>
     </g>
     <g id="text_10">
      <!-- 1000users_RO -->
      <g transform="translate(918.789889 825.420127)rotate(-30)scale(0.14 -0.14)">
       <use xlink:href="#DejaVuSans-49"/>
       <use x="63.623047" xlink:href="#DejaVuSans-48"/>
       <use x="127.246094" xlink:href="#DejaVuSans-48"/>
       <use x="190.869141" xlink:href="#DejaVuSans-48"/>
       <use x="254.492188" xlink:href="#DejaVuSans-117"/>
       <use x="317.871094" xlink:href="#DejaVuSans-115"/>
       <use x="369.970703" xlink:href="#DejaVuSans-101"/>
       <use x="431.494141" xlink:href="#DejaVuSans-114"/>
       <use x="472.607422" xlink:href="#DejaVuSans-115"/>
       <use x="524.707031" xlink:href="#DejaVuSans-95"/>
       <use x="574.707031" xlink:href="#DejaVuSans-82"/>
       <use x="644.189453" xlink:href="#DejaVuSans-79"/>
      </g>
     </g>
    </g>
    <g id="xtick_11">
     <g id="line2d_21">
      <path clip-path="url(#pa65916a7cc)" d="M 1051.582912 758.818144 
L 1051.582912 49.12 
" style="fill:none;stroke:#808080;stroke-dasharray:0.925,0.4;stroke-dashoffset:0;stroke-width:0.25;"/>
     </g>
     <g id="line2d_22">
      <g>
       <use style="stroke:#000000;stroke-width:0.8;" x="1051.582912" xlink:href="#md36e3675f2" y="758.818144"/>
      </g>
     </g>
     <g id="text_11">
      <!-- 1000users_RW -->
      <g transform="translate(1008.313353 826.82669)rotate(-30)scale(0.14 -0.14)">
       <use xlink:href="#DejaVuSans-49"/>
       <use x="63.623047" xlink:href="#DejaVuSans-48"/>
       <use x="127.246094" xlink:href="#DejaVuSans-48"/>
       <use x="190.869141" xlink:href="#DejaVuSans-48"/>
       <use x="254.492188" xlink:href="#DejaVuSans-117"/>
       <use x="317.871094" xlink:href="#DejaVuSans-115"/>
       <use x="369.970703" xlink:href="#DejaVuSans-101"/>
       <use x="431.494141" xlink:href="#DejaVuSans-114"/>
       <use x="472.607422" xlink:href="#DejaVuSans-115"/>
       <use x="524.707031" xlink:href="#DejaVuSans-95"/>
       <use x="574.707031" xlink:href="#DejaVuSans-82"/>
       <use x="644.126953" xlink:href="#DejaVuSans-87"/>
      </g>
     </g>
    </g>
    <g id="text_12">
     <!-- Test Case -->
     <defs>
      <path d="M -0.296875 72.90625 
L 61.375 72.90625 
L 61.375 64.59375 
L 35.5 64.59375 
L 35.5 0 
L 25.59375 0 
L 25.59375 64.59375 
L -0.296875 64.59375 
z
" id="DejaVuSans-84"/>
      <path d="M 18.3125 70.21875 
L 18.3125 54.6875 
L 36.8125 54.6875 
L 36.8125 47.703125 
L 18.3125 47.703125 
L 18.3125 18.015625 
Q 18.3125 11.328125 20.140625 9.421875 
Q 21.96875 7.515625 27.59375 7.515625 
L 36.8125 7.515625 
L 36.8125 0 
L 27.59375 0 
Q 17.1875 0 13.234375 3.875 
Q 9.28125 7.765625 9.28125 18.015625 
L 9.28125 47.703125 
L 2.6875 47.703125 
L 2.6875 54.6875 
L 9.28125 54.6875 
L 9.28125 70.21875 
z
" id="DejaVuSans-116"/>
      <path id="DejaVuSans-32"/>
      <path d="M 64.40625 67.28125 
L 64.40625 56.890625 
Q 59.421875 61.53125 53.78125 63.8125 
Q 48.140625 66.109375 41.796875 66.109375 
Q 29.296875 66.109375 22.65625 58.46875 
Q 16.015625 50.828125 16.015625 36.375 
Q 16.015625 21.96875 22.65625 14.328125 
Q 29.296875 6.6875 41.796875 6.6875 
Q 48.140625 6.6875 53.78125 8.984375 
Q 59.421875 11.28125 64.40625 15.921875 
L 64.40625 5.609375 
Q 59.234375 2.09375 53.4375 0.328125 
Q 47.65625 -1.421875 41.21875 -1.421875 
Q 24.65625 -1.421875 15.125 8.703125 
Q 5.609375 18.84375 5.609375 36.375 
Q 5.609375 53.953125 15.125 64.078125 
Q 24.65625 74.21875 41.21875 74.21875 
Q 47.75 74.21875 53.53125 72.484375 
Q 59.328125 70.75 64.40625 67.28125 
z
" id="DejaVuSans-67"/>
      <path d="M 34.28125 27.484375 
Q 23.390625 27.484375 19.1875 25 
Q 14.984375 22.515625 14.984375 16.5 
Q 14.984375 11.71875 18.140625 8.90625 
Q 21.296875 6.109375 26.703125 6.109375 
Q 34.1875 6.109375 38.703125 11.40625 
Q 43.21875 16.703125 43.21875 25.484375 
L 43.21875 27.484375 
z
M 52.203125 31.203125 
L 52.203125 0 
L 43.21875 0 
L 43.21875 8.296875 
Q 40.140625 3.328125 35.546875 0.953125 
Q 30.953125 -1.421875 24.3125 -1.421875 
Q 15.921875 -1.421875 10.953125 3.296875 
Q 6 8.015625 6 15.921875 
Q 6 25.140625 12.171875 29.828125 
Q 18.359375 34.515625 30.609375 34.515625 
L 43.21875 34.515625 
L 43.21875 35.40625 
Q 43.21875 41.609375 39.140625 45 
Q 35.0625 48.390625 27.6875 48.390625 
Q 23 48.390625 18.546875 47.265625 
Q 14.109375 46.140625 10.015625 43.890625 
L 10.015625 52.203125 
Q 14.9375 54.109375 19.578125 55.046875 
Q 24.21875 56 28.609375 56 
Q 40.484375 56 46.34375 49.84375 
Q 52.203125 43.703125 52.203125 31.203125 
z
" id="DejaVuSans-97"/>
     </defs>
     <g transform="translate(558.6625 845.842885)scale(0.16 -0.16)">
      <use xlink:href="#DejaVuSans-84"/>
      <use x="60.818359" xlink:href="#DejaVuSans-101"/>
      <use x="122.341797" xlink:href="#DejaVuSans-115"/>
      <use x="174.441406" xlink:href="#DejaVuSans-116"/>
      <use x="213.650391" xlink:href="#DejaVuSans-32"/>
      <use x="245.4375" xlink:href="#DejaVuSans-67"/>
      <use x="315.261719" xlink:href="#DejaVuSans-97"/>
      <use x="376.541016" xlink:href="#DejaVuSans-115"/>
      <use x="428.640625" xlink:href="#DejaVuSans-101"/>
     </g>
    </g>
   </g>
   <g id="matplotlib.axis_2">
    <g id="ytick_1">
     <g id="line2d_23">
      <path clip-path="url(#pa65916a7cc)" d="M 58.87 758.818144 
L 1136.88 758.818144 
" style="fill:none;stroke:#808080;stroke-dasharray:0.925,0.4;stroke-dashoffset:0;stroke-width:0.25;"/>
     </g>
     <g id="line2d_24">
      <defs>
       <path d="M 0 0 
L -3.5 0 
" id="me526298d0b" style="stroke:#000000;stroke-width:0.8;"/>
      </defs>
      <g>
       <use style="stroke:#000000;stroke-width:0.8;" x="58.87" xlink:href="#me526298d0b" y="758.818144"/>
      </g>
     </g>
     <g id="text_13">
      <!-- 0 -->
      <g transform="translate(42.9625 764.137051)scale(0.14 -0.14)">
       <use xlink:href="#DejaVuSans-48"/>
      </g>
     </g>
    </g>
    <g id="ytick_2">
     <g id="line2d_25">
      <path clip-path="url(#pa65916a7cc)" d="M 58.87 679.018499 
L 1136.88 679.018499 
" style="fill:none;stroke:#808080;stroke-dasharray:0.925,0.4;stroke-dashoffset:0;stroke-width:0.25;"/>
     </g>
     <g id="line2d_26">
      <g>
       <use style="stroke:#000000;stroke-width:0.8;" x="58.87" xlink:href="#me526298d0b" y="679.018499"/>
      </g>
     </g>
     <g id="text_14">
      <!-- 5 -->
      <g transform="translate(42.9625 684.337405)scale(0.14 -0.14)">
       <use xlink:href="#DejaVuSans-53"/>
      </g>
     </g>
    </g>
    <g id="ytick_3">
     <g id="line2d_27">
      <path clip-path="url(#pa65916a7cc)" d="M 58.87 599.218854 
L 1136.88 599.218854 
" style="fill:none;stroke:#808080;stroke-dasharray:0.925,0.4;stroke-dashoffset:0;stroke-width:0.25;"/>
     </g>
     <g id="line2d_28">
      <g>
       <use style="stroke:#000000;stroke-width:0.8;" x="58.87" xlink:href="#me526298d0b" y="599.218854"/>
      </g>
     </g>
     <g id="text_15">
      <!-- 10 -->
      <g transform="translate(34.055 604.53776)scale(0.14 -0.14)">
       <use xlink:href="#DejaVuSans-49"/>
       <use x="63.623047" xlink:href="#DejaVuSans-48"/>
      </g>
     </g>
    </g>
    <g id="ytick_4">
     <g id="line2d_29">
      <path clip-path="url(#pa65916a7cc)" d="M 58.87 519.419209 
L 1136.88 519.419209 
" style="fill:none;stroke:#808080;stroke-dasharray:0.925,0.4;stroke-dashoffset:0;stroke-width:0.25;"/>
     </g>
     <g id="line2d_30">
      <g>
       <use style="stroke:#000000;stroke-width:0.8;" x="58.87" xlink:href="#me526298d0b" y="519.419209"/>
      </g>
     </g>
     <g id="text_16">
      <!-- 15 -->
      <g transform="translate(34.055 524.738115)scale(0.14 -0.14)">
       <use xlink:href="#DejaVuSans-49"/>
       <use x="63.623047" xlink:href="#DejaVuSans-53"/>
      </g>
     </g>
    </g>
    <g id="ytick_5">
     <g id="line2d_31">
      <path clip-path="url(#pa65916a7cc)" d="M 58.87 439.619564 
L 1136.88 439.619564 
" style="fill:none;stroke:#808080;stroke-dasharray:0.925,0.4;stroke-dashoffset:0;stroke-width:0.25;"/>
     </g>
     <g id="line2d_32">
      <g>
       <use style="stroke:#000000;stroke-width:0.8;" x="58.87" xlink:href="#me526298d0b" y="439.619564"/>
      </g>
     </g>
     <g id="text_17">
      <!-- 20 -->
      <g transform="translate(34.055 444.93847)scale(0.14 -0.14)">
       <use xlink:href="#DejaVuSans-50"/>
       <use x="63.623047" xlink:href="#DejaVuSans-48"/>
      </g>
     </g>
    </g>
    <g id="ytick_6">
     <g id="line2d_33">
      <path clip-path="url(#pa65916a7cc)" d="M 58.87 359.819918 
L 1136.88 359.819918 
" style="fill:none;stroke:#808080;stroke-dasharray:0.925,0.4;stroke-dashoffset:0;stroke-width:0.25;"/>
     </g>
     <g id="line2d_34">
      <g>
       <use style="stroke:#000000;stroke-width:0.8;" x="58.87" xlink:href="#me526298d0b" y="359.819918"/>
      </g>
     </g>
     <g id="text_18">
      <!-- 25 -->
      <g transform="translate(34.055 365.138825)scale(0.14 -0.14)">
       <use xlink:href="#DejaVuSans-50"/>
       <use x="63.623047" xlink:href="#DejaVuSans-53"/>
      </g>
     </g>
    </g>
    <g id="ytick_7">
     <g id="line2d_35">
      <path clip-path="url(#pa65916a7cc)" d="M 58.87 280.020273 
L 1136.88 280.020273 
" style="fill:none;stroke:#808080;stroke-dasharray:0.925,0.4;stroke-dashoffset:0;stroke-width:0.25;"/>
     </g>
     <g id="line2d_36">
      <g>
       <use style="stroke:#000000;stroke-width:0.8;" x="58.87" xlink:href="#me526298d0b" y="280.020273"/>
      </g>
     </g>
     <g id="text_19">
      <!-- 30 -->
      <defs>
       <path d="M 40.578125 39.3125 
Q 47.65625 37.796875 51.625 33 
Q 55.609375 28.21875 55.609375 21.1875 
Q 55.609375 10.40625 48.1875 4.484375 
Q 40.765625 -1.421875 27.09375 -1.421875 
Q 22.515625 -1.421875 17.65625 -0.515625 
Q 12.796875 0.390625 7.625 2.203125 
L 7.625 11.71875 
Q 11.71875 9.328125 16.59375 8.109375 
Q 21.484375 6.890625 26.8125 6.890625 
Q 36.078125 6.890625 40.9375 10.546875 
Q 45.796875 14.203125 45.796875 21.1875 
Q 45.796875 27.640625 41.28125 31.265625 
Q 36.765625 34.90625 28.71875 34.90625 
L 20.21875 34.90625 
L 20.21875 43.015625 
L 29.109375 43.015625 
Q 36.375 43.015625 40.234375 45.921875 
Q 44.09375 48.828125 44.09375 54.296875 
Q 44.09375 59.90625 40.109375 62.90625 
Q 36.140625 65.921875 28.71875 65.921875 
Q 24.65625 65.921875 20.015625 65.03125 
Q 15.375 64.15625 9.8125 62.3125 
L 9.8125 71.09375 
Q 15.4375 72.65625 20.34375 73.4375 
Q 25.25 74.21875 29.59375 74.21875 
Q 40.828125 74.21875 47.359375 69.109375 
Q 53.90625 64.015625 53.90625 55.328125 
Q 53.90625 49.265625 50.4375 45.09375 
Q 46.96875 40.921875 40.578125 39.3125 
z
" id="DejaVuSans-51"/>
      </defs>
      <g transform="translate(34.055 285.33918)scale(0.14 -0.14)">
       <use xlink:href="#DejaVuSans-51"/>
       <use x="63.623047" xlink:href="#DejaVuSans-48"/>
      </g>
     </g>
    </g>
    <g id="ytick_8">
     <g id="line2d_37">
      <path clip-path="url(#pa65916a7cc)" d="M 58.87 200.220628 
L 1136.88 200.220628 
" style="fill:none;stroke:#808080;stroke-dasharray:0.925,0.4;stroke-dashoffset:0;stroke-width:0.25;"/>
     </g>
     <g id="line2d_38">
      <g>
       <use style="stroke:#000000;stroke-width:0.8;" x="58.87" xlink:href="#me526298d0b" y="200.220628"/>
      </g>
     </g>
     <g id="text_20">
      <!-- 35 -->
      <g transform="translate(34.055 205.539534)scale(0.14 -0.14)">
       <use xlink:href="#DejaVuSans-51"/>
       <use x="63.623047" xlink:href="#DejaVuSans-53"/>
      </g>
     </g>
    </g>
    <g id="ytick_9">
     <g id="line2d_39">
      <path clip-path="url(#pa65916a7cc)" d="M 58.87 120.420983 
L 1136.88 120.420983 
" style="fill:none;stroke:#808080;stroke-dasharray:0.925,0.4;stroke-dashoffset:0;stroke-width:0.25;"/>
     </g>
     <g id="line2d_40">
      <g>
       <use style="stroke:#000000;stroke-width:0.8;" x="58.87" xlink:href="#me526298d0b" y="120.420983"/>
      </g>
     </g>
     <g id="text_21">
      <!-- 40 -->
      <defs>
       <path d="M 37.796875 64.3125 
L 12.890625 25.390625 
L 37.796875 25.390625 
z
M 35.203125 72.90625 
L 47.609375 72.90625 
L 47.609375 25.390625 
L 58.015625 25.390625 
L 58.015625 17.1875 
L 47.609375 17.1875 
L 47.609375 0 
L 37.796875 0 
L 37.796875 17.1875 
L 4.890625 17.1875 
L 4.890625 26.703125 
z
" id="DejaVuSans-52"/>
      </defs>
      <g transform="translate(34.055 125.739889)scale(0.14 -0.14)">
       <use xlink:href="#DejaVuSans-52"/>
       <use x="63.623047" xlink:href="#DejaVuSans-48"/>
      </g>
     </g>
    </g>
    <g id="text_22">
     <!-- Failure Rate, % -->
     <defs>
      <path d="M 9.8125 72.90625 
L 51.703125 72.90625 
L 51.703125 64.59375 
L 19.671875 64.59375 
L 19.671875 43.109375 
L 48.578125 43.109375 
L 48.578125 34.8125 
L 19.671875 34.8125 
L 19.671875 0 
L 9.8125 0 
z
" id="DejaVuSans-70"/>
      <path d="M 9.421875 54.6875 
L 18.40625 54.6875 
L 18.40625 0 
L 9.421875 0 
z
M 9.421875 75.984375 
L 18.40625 75.984375 
L 18.40625 64.59375 
L 9.421875 64.59375 
z
" id="DejaVuSans-105"/>
      <path d="M 9.421875 75.984375 
L 18.40625 75.984375 
L 18.40625 0 
L 9.421875 0 
z
" id="DejaVuSans-108"/>
      <path d="M 11.71875 12.40625 
L 22.015625 12.40625 
L 22.015625 4 
L 14.015625 -11.625 
L 7.71875 -11.625 
L 11.71875 4 
z
" id="DejaVuSans-44"/>
      <path d="M 72.703125 32.078125 
Q 68.453125 32.078125 66.03125 28.46875 
Q 63.625 24.859375 63.625 18.40625 
Q 63.625 12.0625 66.03125 8.421875 
Q 68.453125 4.78125 72.703125 4.78125 
Q 76.859375 4.78125 79.265625 8.421875 
Q 81.6875 12.0625 81.6875 18.40625 
Q 81.6875 24.8125 79.265625 28.4375 
Q 76.859375 32.078125 72.703125 32.078125 
z
M 72.703125 38.28125 
Q 80.421875 38.28125 84.953125 32.90625 
Q 89.5 27.546875 89.5 18.40625 
Q 89.5 9.28125 84.9375 3.921875 
Q 80.375 -1.421875 72.703125 -1.421875 
Q 64.890625 -1.421875 60.34375 3.921875 
Q 55.8125 9.28125 55.8125 18.40625 
Q 55.8125 27.59375 60.375 32.9375 
Q 64.9375 38.28125 72.703125 38.28125 
z
M 22.3125 68.015625 
Q 18.109375 68.015625 15.6875 64.375 
Q 13.28125 60.75 13.28125 54.390625 
Q 13.28125 47.953125 15.671875 44.328125 
Q 18.0625 40.71875 22.3125 40.71875 
Q 26.5625 40.71875 28.96875 44.328125 
Q 31.390625 47.953125 31.390625 54.390625 
Q 31.390625 60.6875 28.953125 64.34375 
Q 26.515625 68.015625 22.3125 68.015625 
z
M 66.40625 74.21875 
L 74.21875 74.21875 
L 28.609375 -1.421875 
L 20.796875 -1.421875 
z
M 22.3125 74.21875 
Q 30.03125 74.21875 34.609375 68.875 
Q 39.203125 63.53125 39.203125 54.390625 
Q 39.203125 45.171875 34.640625 39.84375 
Q 30.078125 34.515625 22.3125 34.515625 
Q 14.546875 34.515625 10.03125 39.859375 
Q 5.515625 45.21875 5.515625 54.390625 
Q 5.515625 63.484375 10.046875 68.84375 
Q 14.59375 74.21875 22.3125 74.21875 
z
" id="DejaVuSans-37"/>
     </defs>
     <g transform="translate(26.7275 464.931572)rotate(-90)scale(0.16 -0.16)">
      <use xlink:href="#DejaVuSans-70"/>
      <use x="57.378906" xlink:href="#DejaVuSans-97"/>
      <use x="118.658203" xlink:href="#DejaVuSans-105"/>
      <use x="146.441406" xlink:href="#DejaVuSans-108"/>
      <use x="174.224609" xlink:href="#DejaVuSans-117"/>
      <use x="237.603516" xlink:href="#DejaVuSans-114"/>
      <use x="278.685547" xlink:href="#DejaVuSans-101"/>
      <use x="340.208984" xlink:href="#DejaVuSans-32"/>
      <use x="371.996094" xlink:href="#DejaVuSans-82"/>
      <use x="441.447266" xlink:href="#DejaVuSans-97"/>
      <use x="502.726562" xlink:href="#DejaVuSans-116"/>
      <use x="541.935547" xlink:href="#DejaVuSans-101"/>
      <use x="603.458984" xlink:href="#DejaVuSans-44"/>
      <use x="635.246094" xlink:href="#DejaVuSans-32"/>
      <use x="667.033203" xlink:href="#DejaVuSans-37"/>
     </g>
    </g>
   </g>
   <g id="patch_25">
    <path d="M 58.87 758.818144 
L 58.87 49.12 
" style="fill:none;stroke:#000000;stroke-linecap:square;stroke-linejoin:miter;stroke-width:0.8;"/>
   </g>
   <g id="patch_26">
    <path d="M 1136.88 758.818144 
L 1136.88 49.12 
" style="fill:none;stroke:#000000;stroke-linecap:square;stroke-linejoin:miter;stroke-width:0.8;"/>
   </g>
   <g id="patch_27">
    <path d="M 58.87 758.818144 
L 1136.88 758.818144 
" style="fill:none;stroke:#000000;stroke-linecap:square;stroke-linejoin:miter;stroke-width:0.8;"/>
   </g>
   <g id="patch_28">
    <path d="M 58.87 49.12 
L 1136.88 49.12 
" style="fill:none;stroke:#000000;stroke-linecap:square;stroke-linejoin:miter;stroke-width:0.8;"/>
   </g>
   <g id="text_23">
    <!-- 0.0 -->
    <defs>
     <path d="M 10.6875 12.40625 
L 21 12.40625 
L 21 0 
L 10.6875 0 
z
" id="DejaVuSans-46"/>
    </defs>
    <g transform="translate(114.886584 752.906582)scale(0.14 -0.14)">
     <use xlink:href="#DejaVuSans-48"/>
     <use x="63.623047" xlink:href="#DejaVuSans-46"/>
     <use x="95.410156" xlink:href="#DejaVuSans-48"/>
    </g>
   </g>
   <g id="text_24">
    <!-- 0.0 -->
    <g transform="translate(205.628166 752.906582)scale(0.14 -0.14)">
     <use xlink:href="#DejaVuSans-48"/>
     <use x="63.623047" xlink:href="#DejaVuSans-46"/>
     <use x="95.410156" xlink:href="#DejaVuSans-48"/>
    </g>
   </g>
   <g id="text_25">
    <!-- 0.0 -->
    <g transform="translate(296.369749 752.906582)scale(0.14 -0.14)">
     <use xlink:href="#DejaVuSans-48"/>
     <use x="63.623047" xlink:href="#DejaVuSans-46"/>
     <use x="95.410156" xlink:href="#DejaVuSans-48"/>
    </g>
   </g>
   <g id="text_26">
    <!-- 1.45 -->
    <g transform="translate(382.657581 729.764685)scale(0.14 -0.14)">
     <use xlink:href="#DejaVuSans-49"/>
     <use x="63.623047" xlink:href="#DejaVuSans-46"/>
     <use x="95.410156" xlink:href="#DejaVuSans-52"/>
     <use x="159.033203" xlink:href="#DejaVuSans-53"/>
    </g>
   </g>
   <g id="text_27">
    <!-- 0.0 -->
    <g transform="translate(477.852914 752.906582)scale(0.14 -0.14)">
     <use xlink:href="#DejaVuSans-48"/>
     <use x="63.623047" xlink:href="#DejaVuSans-46"/>
     <use x="95.410156" xlink:href="#DejaVuSans-48"/>
    </g>
   </g>
   <g id="text_28">
    <!-- 17.27 -->
    <g transform="translate(559.686996 477.278607)scale(0.14 -0.14)">
     <use xlink:href="#DejaVuSans-49"/>
     <use x="63.623047" xlink:href="#DejaVuSans-55"/>
     <use x="127.246094" xlink:href="#DejaVuSans-46"/>
     <use x="159.033203" xlink:href="#DejaVuSans-50"/>
     <use x="222.65625" xlink:href="#DejaVuSans-55"/>
    </g>
   </g>
   <g id="text_29">
    <!-- 21.0 -->
    <g transform="translate(654.882328 417.748072)scale(0.14 -0.14)">
     <use xlink:href="#DejaVuSans-50"/>
     <use x="63.623047" xlink:href="#DejaVuSans-49"/>
     <use x="127.246094" xlink:href="#DejaVuSans-46"/>
     <use x="159.033203" xlink:href="#DejaVuSans-48"/>
    </g>
   </g>
   <g id="text_30">
    <!-- 29.42 -->
    <defs>
     <path d="M 10.984375 1.515625 
L 10.984375 10.5 
Q 14.703125 8.734375 18.5 7.8125 
Q 22.3125 6.890625 25.984375 6.890625 
Q 35.75 6.890625 40.890625 13.453125 
Q 46.046875 20.015625 46.78125 33.40625 
Q 43.953125 29.203125 39.59375 26.953125 
Q 35.25 24.703125 29.984375 24.703125 
Q 19.046875 24.703125 12.671875 31.3125 
Q 6.296875 37.9375 6.296875 49.421875 
Q 6.296875 60.640625 12.9375 67.421875 
Q 19.578125 74.21875 30.609375 74.21875 
Q 43.265625 74.21875 49.921875 64.515625 
Q 56.59375 54.828125 56.59375 36.375 
Q 56.59375 19.140625 48.40625 8.859375 
Q 40.234375 -1.421875 26.421875 -1.421875 
Q 22.703125 -1.421875 18.890625 -0.6875 
Q 15.09375 0.046875 10.984375 1.515625 
z
M 30.609375 32.421875 
Q 37.25 32.421875 41.125 36.953125 
Q 45.015625 41.5 45.015625 49.421875 
Q 45.015625 57.28125 41.125 61.84375 
Q 37.25 66.40625 30.609375 66.40625 
Q 23.96875 66.40625 20.09375 61.84375 
Q 16.21875 57.28125 16.21875 49.421875 
Q 16.21875 41.5 20.09375 36.953125 
Q 23.96875 32.421875 30.609375 32.421875 
z
" id="DejaVuSans-57"/>
    </defs>
    <g transform="translate(741.170161 283.36547)scale(0.14 -0.14)">
     <use xlink:href="#DejaVuSans-50"/>
     <use x="63.623047" xlink:href="#DejaVuSans-57"/>
     <use x="127.246094" xlink:href="#DejaVuSans-46"/>
     <use x="159.033203" xlink:href="#DejaVuSans-52"/>
     <use x="222.65625" xlink:href="#DejaVuSans-50"/>
    </g>
   </g>
   <g id="text_31">
    <!-- 30.65 -->
    <defs>
     <path d="M 33.015625 40.375 
Q 26.375 40.375 22.484375 35.828125 
Q 18.609375 31.296875 18.609375 23.390625 
Q 18.609375 15.53125 22.484375 10.953125 
Q 26.375 6.390625 33.015625 6.390625 
Q 39.65625 6.390625 43.53125 10.953125 
Q 47.40625 15.53125 47.40625 23.390625 
Q 47.40625 31.296875 43.53125 35.828125 
Q 39.65625 40.375 33.015625 40.375 
z
M 52.59375 71.296875 
L 52.59375 62.3125 
Q 48.875 64.0625 45.09375 64.984375 
Q 41.3125 65.921875 37.59375 65.921875 
Q 27.828125 65.921875 22.671875 59.328125 
Q 17.53125 52.734375 16.796875 39.40625 
Q 19.671875 43.65625 24.015625 45.921875 
Q 28.375 48.1875 33.59375 48.1875 
Q 44.578125 48.1875 50.953125 41.515625 
Q 57.328125 34.859375 57.328125 23.390625 
Q 57.328125 12.15625 50.6875 5.359375 
Q 44.046875 -1.421875 33.015625 -1.421875 
Q 20.359375 -1.421875 13.671875 8.265625 
Q 6.984375 17.96875 6.984375 36.375 
Q 6.984375 53.65625 15.1875 63.9375 
Q 23.390625 74.21875 37.203125 74.21875 
Q 40.921875 74.21875 44.703125 73.484375 
Q 48.484375 72.75 52.59375 71.296875 
z
" id="DejaVuSans-54"/>
    </defs>
    <g transform="translate(831.911743 263.734757)scale(0.14 -0.14)">
     <use xlink:href="#DejaVuSans-51"/>
     <use x="63.623047" xlink:href="#DejaVuSans-48"/>
     <use x="127.246094" xlink:href="#DejaVuSans-46"/>
     <use x="159.033203" xlink:href="#DejaVuSans-54"/>
     <use x="222.65625" xlink:href="#DejaVuSans-53"/>
    </g>
   </g>
   <g id="text_32">
    <!-- 37.26 -->
    <g transform="translate(922.653326 158.239626)scale(0.14 -0.14)">
     <use xlink:href="#DejaVuSans-51"/>
     <use x="63.623047" xlink:href="#DejaVuSans-55"/>
     <use x="127.246094" xlink:href="#DejaVuSans-46"/>
     <use x="159.033203" xlink:href="#DejaVuSans-50"/>
     <use x="222.65625" xlink:href="#DejaVuSans-54"/>
    </g>
   </g>
   <g id="text_33">
    <!-- 39.34 -->
    <g transform="translate(1013.394908 125.042974)scale(0.14 -0.14)">
     <use xlink:href="#DejaVuSans-51"/>
     <use x="63.623047" xlink:href="#DejaVuSans-57"/>
     <use x="127.246094" xlink:href="#DejaVuSans-46"/>
     <use x="159.033203" xlink:href="#DejaVuSans-51"/>
     <use x="222.65625" xlink:href="#DejaVuSans-52"/>
    </g>
   </g>
   <g id="text_34">
    <!-- 0.0 -->
    <g transform="translate(151.183217 752.906582)scale(0.14 -0.14)">
     <use xlink:href="#DejaVuSans-48"/>
     <use x="63.623047" xlink:href="#DejaVuSans-46"/>
     <use x="95.410156" xlink:href="#DejaVuSans-48"/>
    </g>
   </g>
   <g id="text_35">
    <!-- 0.24 -->
    <g transform="translate(237.471049 749.076199)scale(0.14 -0.14)">
     <use xlink:href="#DejaVuSans-48"/>
     <use x="63.623047" xlink:href="#DejaVuSans-46"/>
     <use x="95.410156" xlink:href="#DejaVuSans-50"/>
     <use x="159.033203" xlink:href="#DejaVuSans-52"/>
    </g>
   </g>
   <g id="text_36">
    <!-- 0.14 -->
    <g transform="translate(328.212632 750.672192)scale(0.14 -0.14)">
     <use xlink:href="#DejaVuSans-48"/>
     <use x="63.623047" xlink:href="#DejaVuSans-46"/>
     <use x="95.410156" xlink:href="#DejaVuSans-49"/>
     <use x="159.033203" xlink:href="#DejaVuSans-52"/>
    </g>
   </g>
   <g id="text_37">
    <!-- 8.86 -->
    <defs>
     <path d="M 31.78125 34.625 
Q 24.75 34.625 20.71875 30.859375 
Q 16.703125 27.09375 16.703125 20.515625 
Q 16.703125 13.921875 20.71875 10.15625 
Q 24.75 6.390625 31.78125 6.390625 
Q 38.8125 6.390625 42.859375 10.171875 
Q 46.921875 13.96875 46.921875 20.515625 
Q 46.921875 27.09375 42.890625 30.859375 
Q 38.875 34.625 31.78125 34.625 
z
M 21.921875 38.8125 
Q 15.578125 40.375 12.03125 44.71875 
Q 8.5 49.078125 8.5 55.328125 
Q 8.5 64.0625 14.71875 69.140625 
Q 20.953125 74.21875 31.78125 74.21875 
Q 42.671875 74.21875 48.875 69.140625 
Q 55.078125 64.0625 55.078125 55.328125 
Q 55.078125 49.078125 51.53125 44.71875 
Q 48 40.375 41.703125 38.8125 
Q 48.828125 37.15625 52.796875 32.3125 
Q 56.78125 27.484375 56.78125 20.515625 
Q 56.78125 9.90625 50.3125 4.234375 
Q 43.84375 -1.421875 31.78125 -1.421875 
Q 19.734375 -1.421875 13.25 4.234375 
Q 6.78125 9.90625 6.78125 20.515625 
Q 6.78125 27.484375 10.78125 32.3125 
Q 14.796875 37.15625 21.921875 38.8125 
z
M 18.3125 54.390625 
Q 18.3125 48.734375 21.84375 45.5625 
Q 25.390625 42.390625 31.78125 42.390625 
Q 38.140625 42.390625 41.71875 45.5625 
Q 45.3125 48.734375 45.3125 54.390625 
Q 45.3125 60.0625 41.71875 63.234375 
Q 38.140625 66.40625 31.78125 66.40625 
Q 25.390625 66.40625 21.84375 63.234375 
Q 18.3125 60.0625 18.3125 54.390625 
z
" id="DejaVuSans-56"/>
    </defs>
    <g transform="translate(418.954214 611.501611)scale(0.14 -0.14)">
     <use xlink:href="#DejaVuSans-56"/>
     <use x="63.623047" xlink:href="#DejaVuSans-46"/>
     <use x="95.410156" xlink:href="#DejaVuSans-56"/>
     <use x="159.033203" xlink:href="#DejaVuSans-54"/>
    </g>
   </g>
   <g id="text_38">
    <!-- 1.06 -->
    <g transform="translate(509.695797 735.989057)scale(0.14 -0.14)">
     <use xlink:href="#DejaVuSans-49"/>
     <use x="63.623047" xlink:href="#DejaVuSans-46"/>
     <use x="95.410156" xlink:href="#DejaVuSans-48"/>
     <use x="159.033203" xlink:href="#DejaVuSans-54"/>
    </g>
   </g>
   <g id="text_39">
    <!-- 15.46 -->
    <g transform="translate(595.983629 506.166079)scale(0.14 -0.14)">
     <use xlink:href="#DejaVuSans-49"/>
     <use x="63.623047" xlink:href="#DejaVuSans-53"/>
     <use x="127.246094" xlink:href="#DejaVuSans-46"/>
     <use x="159.033203" xlink:href="#DejaVuSans-52"/>
     <use x="222.65625" xlink:href="#DejaVuSans-54"/>
    </g>
   </g>
   <g id="text_40">
    <!-- 7.57 -->
    <g transform="translate(691.178961 632.089919)scale(0.14 -0.14)">
     <use xlink:href="#DejaVuSans-55"/>
     <use x="63.623047" xlink:href="#DejaVuSans-46"/>
     <use x="95.410156" xlink:href="#DejaVuSans-53"/>
     <use x="159.033203" xlink:href="#DejaVuSans-55"/>
    </g>
   </g>
   <g id="text_41">
    <!-- 42.32 -->
    <g transform="translate(777.466794 77.482385)scale(0.14 -0.14)">
     <use xlink:href="#DejaVuSans-52"/>
     <use x="63.623047" xlink:href="#DejaVuSans-50"/>
     <use x="127.246094" xlink:href="#DejaVuSans-46"/>
     <use x="159.033203" xlink:href="#DejaVuSans-51"/>
     <use x="222.65625" xlink:href="#DejaVuSans-50"/>
    </g>
   </g>
   <g id="text_42">
    <!-- 37.51 -->
    <g transform="translate(868.208376 154.249644)scale(0.14 -0.14)">
     <use xlink:href="#DejaVuSans-51"/>
     <use x="63.623047" xlink:href="#DejaVuSans-55"/>
     <use x="127.246094" xlink:href="#DejaVuSans-46"/>
     <use x="159.033203" xlink:href="#DejaVuSans-53"/>
     <use x="222.65625" xlink:href="#DejaVuSans-49"/>
    </g>
   </g>
   <g id="text_43">
    <!-- 42.35 -->
    <g transform="translate(958.949959 77.003587)scale(0.14 -0.14)">
     <use xlink:href="#DejaVuSans-52"/>
     <use x="63.623047" xlink:href="#DejaVuSans-50"/>
     <use x="127.246094" xlink:href="#DejaVuSans-46"/>
     <use x="159.033203" xlink:href="#DejaVuSans-51"/>
     <use x="222.65625" xlink:href="#DejaVuSans-53"/>
    </g>
   </g>
   <g id="text_44">
    <!-- 36.4 -->
    <g transform="translate(1054.145291 171.965165)scale(0.14 -0.14)">
     <use xlink:href="#DejaVuSans-51"/>
     <use x="63.623047" xlink:href="#DejaVuSans-54"/>
     <use x="127.246094" xlink:href="#DejaVuSans-46"/>
     <use x="159.033203" xlink:href="#DejaVuSans-52"/>
    </g>
   </g>
   <g id="text_45">
    <!-- Failure Rates per Test -->
    <defs>
     <path d="M 18.109375 8.203125 
L 18.109375 -20.796875 
L 9.078125 -20.796875 
L 9.078125 54.6875 
L 18.109375 54.6875 
L 18.109375 46.390625 
Q 20.953125 51.265625 25.265625 53.625 
Q 29.59375 56 35.59375 56 
Q 45.5625 56 51.78125 48.09375 
Q 58.015625 40.1875 58.015625 27.296875 
Q 58.015625 14.40625 51.78125 6.484375 
Q 45.5625 -1.421875 35.59375 -1.421875 
Q 29.59375 -1.421875 25.265625 0.953125 
Q 20.953125 3.328125 18.109375 8.203125 
z
M 48.6875 27.296875 
Q 48.6875 37.203125 44.609375 42.84375 
Q 40.53125 48.484375 33.40625 48.484375 
Q 26.265625 48.484375 22.1875 42.84375 
Q 18.109375 37.203125 18.109375 27.296875 
Q 18.109375 17.390625 22.1875 11.75 
Q 26.265625 6.109375 33.40625 6.109375 
Q 40.53125 6.109375 44.609375 11.75 
Q 48.6875 17.390625 48.6875 27.296875 
z
" id="DejaVuSans-112"/>
    </defs>
    <g transform="translate(400.0775 41.633125)scale(0.36 -0.36)">
     <use xlink:href="#DejaVuSans-70"/>
     <use x="57.378906" xlink:href="#DejaVuSans-97"/>
     <use x="118.658203" xlink:href="#DejaVuSans-105"/>
     <use x="146.441406" xlink:href="#DejaVuSans-108"/>
     <use x="174.224609" xlink:href="#DejaVuSans-117"/>
     <use x="237.603516" xlink:href="#DejaVuSans-114"/>
     <use x="278.685547" xlink:href="#DejaVuSans-101"/>
     <use x="340.208984" xlink:href="#DejaVuSans-32"/>
     <use x="371.996094" xlink:href="#DejaVuSans-82"/>
     <use x="441.447266" xlink:href="#DejaVuSans-97"/>
     <use x="502.726562" xlink:href="#DejaVuSans-116"/>
     <use x="541.935547" xlink:href="#DejaVuSans-101"/>
     <use x="603.458984" xlink:href="#DejaVuSans-115"/>
     <use x="655.558594" xlink:href="#DejaVuSans-32"/>
     <use x="687.345703" xlink:href="#DejaVuSans-112"/>
     <use x="750.822266" xlink:href="#DejaVuSans-101"/>
     <use x="812.345703" xlink:href="#DejaVuSans-114"/>
     <use x="853.458984" xlink:href="#DejaVuSans-32"/>
     <use x="885.246094" xlink:href="#DejaVuSans-84"/>
     <use x="946.064453" xlink:href="#DejaVuSans-101"/>
     <use x="1007.587891" xlink:href="#DejaVuSans-115"/>
     <use x="1059.6875" xlink:href="#DejaVuSans-116"/>
    </g>
   </g>
   <g id="legend_1">
    <g id="patch_29">
     <path d="M 1002.099375 101.41875 
L 1127.08 101.41875 
Q 1129.88 101.41875 1129.88 98.61875 
L 1129.88 58.92 
Q 1129.88 56.12 1127.08 56.12 
L 1002.099375 56.12 
Q 999.299375 56.12 999.299375 58.92 
L 999.299375 98.61875 
Q 999.299375 101.41875 1002.099375 101.41875 
z
" style="fill:#ffffff;opacity:0.8;stroke:#cccccc;stroke-linejoin:miter;"/>
    </g>
    <g id="patch_30">
     <path d="M 1004.899375 72.357813 
L 1032.899375 72.357813 
L 1032.899375 62.557813 
L 1004.899375 62.557813 
z
" style="fill:#8635d5;"/>
    </g>
    <g id="text_46">
     <!-- Kubernetes -->
     <defs>
      <path d="M 9.8125 72.90625 
L 19.671875 72.90625 
L 19.671875 42.09375 
L 52.390625 72.90625 
L 65.09375 72.90625 
L 28.90625 38.921875 
L 67.671875 0 
L 54.6875 0 
L 19.671875 35.109375 
L 19.671875 0 
L 9.8125 0 
z
" id="DejaVuSans-75"/>
      <path d="M 48.6875 27.296875 
Q 48.6875 37.203125 44.609375 42.84375 
Q 40.53125 48.484375 33.40625 48.484375 
Q 26.265625 48.484375 22.1875 42.84375 
Q 18.109375 37.203125 18.109375 27.296875 
Q 18.109375 17.390625 22.1875 11.75 
Q 26.265625 6.109375 33.40625 6.109375 
Q 40.53125 6.109375 44.609375 11.75 
Q 48.6875 17.390625 48.6875 27.296875 
z
M 18.109375 46.390625 
Q 20.953125 51.265625 25.265625 53.625 
Q 29.59375 56 35.59375 56 
Q 45.5625 56 51.78125 48.09375 
Q 58.015625 40.1875 58.015625 27.296875 
Q 58.015625 14.40625 51.78125 6.484375 
Q 45.5625 -1.421875 35.59375 -1.421875 
Q 29.59375 -1.421875 25.265625 0.953125 
Q 20.953125 3.328125 18.109375 8.203125 
L 18.109375 0 
L 9.078125 0 
L 9.078125 75.984375 
L 18.109375 75.984375 
z
" id="DejaVuSans-98"/>
      <path d="M 54.890625 33.015625 
L 54.890625 0 
L 45.90625 0 
L 45.90625 32.71875 
Q 45.90625 40.484375 42.875 44.328125 
Q 39.84375 48.1875 33.796875 48.1875 
Q 26.515625 48.1875 22.3125 43.546875 
Q 18.109375 38.921875 18.109375 30.90625 
L 18.109375 0 
L 9.078125 0 
L 9.078125 54.6875 
L 18.109375 54.6875 
L 18.109375 46.1875 
Q 21.34375 51.125 25.703125 53.5625 
Q 30.078125 56 35.796875 56 
Q 45.21875 56 50.046875 50.171875 
Q 54.890625 44.34375 54.890625 33.015625 
z
" id="DejaVuSans-110"/>
     </defs>
     <g transform="translate(1044.099375 72.357813)scale(0.14 -0.14)">
      <use xlink:href="#DejaVuSans-75"/>
      <use x="65.498047" xlink:href="#DejaVuSans-117"/>
      <use x="128.876953" xlink:href="#DejaVuSans-98"/>
      <use x="192.353516" xlink:href="#DejaVuSans-101"/>
      <use x="253.876953" xlink:href="#DejaVuSans-114"/>
      <use x="294.974609" xlink:href="#DejaVuSans-110"/>
      <use x="358.353516" xlink:href="#DejaVuSans-101"/>
      <use x="419.876953" xlink:href="#DejaVuSans-116"/>
      <use x="459.085938" xlink:href="#DejaVuSans-101"/>
      <use x="520.609375" xlink:href="#DejaVuSans-115"/>
     </g>
    </g>
    <g id="patch_31">
     <path d="M 1004.899375 92.907188 
L 1032.899375 92.907188 
L 1032.899375 83.107188 
L 1004.899375 83.107188 
z
" style="fill:#2dc574;"/>
    </g>
    <g id="text_47">
     <!-- Knative -->
     <defs>
      <path d="M 2.984375 54.6875 
L 12.5 54.6875 
L 29.59375 8.796875 
L 46.6875 54.6875 
L 56.203125 54.6875 
L 35.6875 0 
L 23.484375 0 
z
" id="DejaVuSans-118"/>
     </defs>
     <g transform="translate(1044.099375 92.907188)scale(0.14 -0.14)">
      <use xlink:href="#DejaVuSans-75"/>
      <use x="65.576172" xlink:href="#DejaVuSans-110"/>
      <use x="128.955078" xlink:href="#DejaVuSans-97"/>
      <use x="190.234375" xlink:href="#DejaVuSans-116"/>
      <use x="229.443359" xlink:href="#DejaVuSans-105"/>
      <use x="257.226562" xlink:href="#DejaVuSans-118"/>
      <use x="316.40625" xlink:href="#DejaVuSans-101"/>
     </g>
    </g>
   </g>
  </g>
 </g>
 <defs>
  <clipPath id="pa65916a7cc">
   <rect height="709.698144" width="1078.01" x="58.87" y="49.12"/>
  </clipPath>
 </defs>
</svg>
