<?xml version="1.0" encoding="utf-8" standalone="no"?>
<!DOCTYPE svg PUBLIC "-//W3C//DTD SVG 1.1//EN"
  "http://www.w3.org/Graphics/SVG/1.1/DTD/svg11.dtd">
<!-- Created with matplotlib (https://matplotlib.org/) -->
<svg height="864pt" version="1.1" viewBox="0 0 1152 864" width="1152pt" xmlns="http://www.w3.org/2000/svg" xmlns:xlink="http://www.w3.org/1999/xlink">
 <defs>
  <style type="text/css">
*{stroke-linecap:butt;stroke-linejoin:round;}
  </style>
 </defs>
 <g id="figure_1">
  <g id="patch_1">
   <path d="M 0 864 
L 1152 864 
L 1152 0 
L 0 0 
z
" style="fill:#ffffff;"/>
  </g>
  <g id="axes_1">
   <g id="patch_2">
    <path d="M 85.37 758.818144 
L 1136.88 758.818144 
L 1136.88 49.12 
L 85.37 49.12 
z
" style="fill:#ffffff;"/>
   </g>
   <g id="patch_3">
    <path clip-path="url(#p7e10863a15)" d="M 133.165909 758.818144 
L 168.570286 758.818144 
L 168.570286 741.169566 
L 133.165909 741.169566 
z
" style="fill:#8635d5;"/>
   </g>
   <g id="patch_4">
    <path clip-path="url(#p7e10863a15)" d="M 221.676852 758.818144 
L 257.081229 758.818144 
L 257.081229 668.697745 
L 221.676852 668.697745 
z
" style="fill:#8635d5;"/>
   </g>
   <g id="patch_5">
    <path clip-path="url(#p7e10863a15)" d="M 310.187795 758.818144 
L 345.592172 758.818144 
L 345.592172 646.167645 
L 310.187795 646.167645 
z
" style="fill:#8635d5;"/>
   </g>
   <g id="patch_6">
    <path clip-path="url(#p7e10863a15)" d="M 398.698737 758.818144 
L 434.103114 758.818144 
L 434.103114 473.43688 
L 398.698737 473.43688 
z
" style="fill:#8635d5;"/>
   </g>
   <g id="patch_7">
    <path clip-path="url(#p7e10863a15)" d="M 487.20968 758.818144 
L 522.614057 758.818144 
L 522.614057 409.601597 
L 487.20968 409.601597 
z
" style="fill:#8635d5;"/>
   </g>
   <g id="patch_8">
    <path clip-path="url(#p7e10863a15)" d="M 575.720623 758.818144 
L 611.125 758.818144 
L 611.125 345.766314 
L 575.720623 345.766314 
z
" style="fill:#8635d5;"/>
   </g>
   <g id="patch_9">
    <path clip-path="url(#p7e10863a15)" d="M 664.231566 758.818144 
L 699.635943 758.818144 
L 699.635943 270.665982 
L 664.231566 270.665982 
z
" style="fill:#8635d5;"/>
   </g>
   <g id="patch_10">
    <path clip-path="url(#p7e10863a15)" d="M 752.742508 758.818144 
L 788.146886 758.818144 
L 788.146886 345.766314 
L 752.742508 345.766314 
z
" style="fill:#8635d5;"/>
   </g>
   <g id="patch_11">
    <path clip-path="url(#p7e10863a15)" d="M 841.253451 758.818144 
L 876.657828 758.818144 
L 876.657828 270.665982 
L 841.253451 270.665982 
z
" style="fill:#8635d5;"/>
   </g>
   <g id="patch_12">
    <path clip-path="url(#p7e10863a15)" d="M 929.764394 758.818144 
L 965.168771 758.818144 
L 965.168771 383.316481 
L 929.764394 383.316481 
z
" style="fill:#8635d5;"/>
   </g>
   <g id="patch_13">
    <path clip-path="url(#p7e10863a15)" d="M 1018.275337 758.818144 
L 1053.679714 758.818144 
L 1053.679714 345.766314 
L 1018.275337 345.766314 
z
" style="fill:#8635d5;"/>
   </g>
   <g id="patch_14">
    <path clip-path="url(#p7e10863a15)" d="M 168.570286 758.818144 
L 203.974663 758.818144 
L 203.974663 82.91515 
L 168.570286 82.91515 
z
" style="fill:#2dc574;"/>
   </g>
   <g id="patch_15">
    <path clip-path="url(#p7e10863a15)" d="M 257.081229 758.818144 
L 292.485606 758.818144 
L 292.485606 563.557279 
L 257.081229 563.557279 
z
" style="fill:#2dc574;"/>
   </g>
   <g id="patch_16">
    <path clip-path="url(#p7e10863a15)" d="M 345.592172 758.818144 
L 380.996549 758.818144 
L 380.996549 499.721996 
L 345.592172 499.721996 
z
" style="fill:#2dc574;"/>
   </g>
   <g id="patch_17">
    <path clip-path="url(#p7e10863a15)" d="M 434.103114 758.818144 
L 469.507492 758.818144 
L 469.507492 567.312296 
L 434.103114 567.312296 
z
" style="fill:#2dc574;"/>
   </g>
   <g id="patch_18">
    <path clip-path="url(#p7e10863a15)" d="M 522.614057 758.818144 
L 558.018434 758.818144 
L 558.018434 548.537213 
L 522.614057 548.537213 
z
" style="fill:#2dc574;"/>
   </g>
   <g id="patch_19">
    <path clip-path="url(#p7e10863a15)" d="M 611.125 758.818144 
L 646.529377 758.818144 
L 646.529377 492.211963 
L 611.125 492.211963 
z
" style="fill:#2dc574;"/>
   </g>
   <g id="patch_20">
    <path clip-path="url(#p7e10863a15)" d="M 699.635943 758.818144 
L 735.04032 758.818144 
L 735.04032 450.90678 
L 699.635943 450.90678 
z
" style="fill:#2dc574;"/>
   </g>
   <g id="patch_21">
    <path clip-path="url(#p7e10863a15)" d="M 788.146886 758.818144 
L 823.551263 758.818144 
L 823.551263 745.675586 
L 788.146886 745.675586 
z
" style="fill:#2dc574;"/>
   </g>
   <g id="patch_22">
    <path clip-path="url(#p7e10863a15)" d="M 876.657828 758.818144 
L 912.062205 758.818144 
L 912.062205 734.035035 
L 876.657828 734.035035 
z
" style="fill:#2dc574;"/>
   </g>
   <g id="patch_23">
    <path clip-path="url(#p7e10863a15)" d="M 965.168771 758.818144 
L 1000.573148 758.818144 
L 1000.573148 687.472828 
L 965.168771 687.472828 
z
" style="fill:#2dc574;"/>
   </g>
   <g id="patch_24">
    <path clip-path="url(#p7e10863a15)" d="M 1053.679714 758.818144 
L 1089.084091 758.818144 
L 1089.084091 627.392562 
L 1053.679714 627.392562 
z
" style="fill:#2dc574;"/>
   </g>
   <g id="matplotlib.axis_1">
    <g id="xtick_1">
     <g id="line2d_1">
      <path clip-path="url(#p7e10863a15)" d="M 168.570286 758.818144 
L 168.570286 49.12 
" style="fill:none;stroke:#808080;stroke-dasharray:0.925,0.4;stroke-dashoffset:0;stroke-width:0.25;"/>
     </g>
     <g id="line2d_2">
      <defs>
       <path d="M 0 0 
L 0 3.5 
" id="m94ed9feb5b" style="stroke:#000000;stroke-width:0.8;"/>
      </defs>
      <g>
       <use style="stroke:#000000;stroke-width:0.8;" x="168.570286" xlink:href="#m94ed9feb5b" y="758.818144"/>
      </g>
     </g>
     <g id="text_1">
      <!-- 1user_RO -->
      <defs>
       <path d="M 12.40625 8.296875 
L 28.515625 8.296875 
L 28.515625 63.921875 
L 10.984375 60.40625 
L 10.984375 69.390625 
L 28.421875 72.90625 
L 38.28125 72.90625 
L 38.28125 8.296875 
L 54.390625 8.296875 
L 54.390625 0 
L 12.40625 0 
z
" id="DejaVuSans-49"/>
       <path d="M 8.5 21.578125 
L 8.5 54.6875 
L 17.484375 54.6875 
L 17.484375 21.921875 
Q 17.484375 14.15625 20.5 10.265625 
Q 23.53125 6.390625 29.59375 6.390625 
Q 36.859375 6.390625 41.078125 11.03125 
Q 45.3125 15.671875 45.3125 23.6875 
L 45.3125 54.6875 
L 54.296875 54.6875 
L 54.296875 0 
L 45.3125 0 
L 45.3125 8.40625 
Q 42.046875 3.421875 37.71875 1 
Q 33.40625 -1.421875 27.6875 -1.421875 
Q 18.265625 -1.421875 13.375 4.4375 
Q 8.5 10.296875 8.5 21.578125 
z
M 31.109375 56 
z
" id="DejaVuSans-117"/>
       <path d="M 44.28125 53.078125 
L 44.28125 44.578125 
Q 40.484375 46.53125 36.375 47.5 
Q 32.28125 48.484375 27.875 48.484375 
Q 21.1875 48.484375 17.84375 46.4375 
Q 14.5 44.390625 14.5 40.28125 
Q 14.5 37.15625 16.890625 35.375 
Q 19.28125 33.59375 26.515625 31.984375 
L 29.59375 31.296875 
Q 39.15625 29.25 43.1875 25.515625 
Q 47.21875 21.78125 47.21875 15.09375 
Q 47.21875 7.46875 41.1875 3.015625 
Q 35.15625 -1.421875 24.609375 -1.421875 
Q 20.21875 -1.421875 15.453125 -0.5625 
Q 10.6875 0.296875 5.421875 2 
L 5.421875 11.28125 
Q 10.40625 8.6875 15.234375 7.390625 
Q 20.0625 6.109375 24.8125 6.109375 
Q 31.15625 6.109375 34.5625 8.28125 
Q 37.984375 10.453125 37.984375 14.40625 
Q 37.984375 18.0625 35.515625 20.015625 
Q 33.0625 21.96875 24.703125 23.78125 
L 21.578125 24.515625 
Q 13.234375 26.265625 9.515625 29.90625 
Q 5.8125 33.546875 5.8125 39.890625 
Q 5.8125 47.609375 11.28125 51.796875 
Q 16.75 56 26.8125 56 
Q 31.78125 56 36.171875 55.265625 
Q 40.578125 54.546875 44.28125 53.078125 
z
" id="DejaVuSans-115"/>
       <path d="M 56.203125 29.59375 
L 56.203125 25.203125 
L 14.890625 25.203125 
Q 15.484375 15.921875 20.484375 11.0625 
Q 25.484375 6.203125 34.421875 6.203125 
Q 39.59375 6.203125 44.453125 7.46875 
Q 49.3125 8.734375 54.109375 11.28125 
L 54.109375 2.78125 
Q 49.265625 0.734375 44.1875 -0.34375 
Q 39.109375 -1.421875 33.890625 -1.421875 
Q 20.796875 -1.421875 13.15625 6.1875 
Q 5.515625 13.8125 5.515625 26.8125 
Q 5.515625 40.234375 12.765625 48.109375 
Q 20.015625 56 32.328125 56 
Q 43.359375 56 49.78125 48.890625 
Q 56.203125 41.796875 56.203125 29.59375 
z
M 47.21875 32.234375 
Q 47.125 39.59375 43.09375 43.984375 
Q 39.0625 48.390625 32.421875 48.390625 
Q 24.90625 48.390625 20.390625 44.140625 
Q 15.875 39.890625 15.1875 32.171875 
z
" id="DejaVuSans-101"/>
       <path d="M 41.109375 46.296875 
Q 39.59375 47.171875 37.8125 47.578125 
Q 36.03125 48 33.890625 48 
Q 26.265625 48 22.1875 43.046875 
Q 18.109375 38.09375 18.109375 28.8125 
L 18.109375 0 
L 9.078125 0 
L 9.078125 54.6875 
L 18.109375 54.6875 
L 18.109375 46.1875 
Q 20.953125 51.171875 25.484375 53.578125 
Q 30.03125 56 36.53125 56 
Q 37.453125 56 38.578125 55.875 
Q 39.703125 55.765625 41.0625 55.515625 
z
" id="DejaVuSans-114"/>
       <path d="M 50.984375 -16.609375 
L 50.984375 -23.578125 
L -0.984375 -23.578125 
L -0.984375 -16.609375 
z
" id="DejaVuSans-95"/>
       <path d="M 44.390625 34.1875 
Q 47.5625 33.109375 50.5625 29.59375 
Q 53.5625 26.078125 56.59375 19.921875 
L 66.609375 0 
L 56 0 
L 46.6875 18.703125 
Q 43.0625 26.03125 39.671875 28.421875 
Q 36.28125 30.8125 30.421875 30.8125 
L 19.671875 30.8125 
L 19.671875 0 
L 9.8125 0 
L 9.8125 72.90625 
L 32.078125 72.90625 
Q 44.578125 72.90625 50.734375 67.671875 
Q 56.890625 62.453125 56.890625 51.90625 
Q 56.890625 45.015625 53.6875 40.46875 
Q 50.484375 35.9375 44.390625 34.1875 
z
M 19.671875 64.796875 
L 19.671875 38.921875 
L 32.078125 38.921875 
Q 39.203125 38.921875 42.84375 42.21875 
Q 46.484375 45.515625 46.484375 51.90625 
Q 46.484375 58.296875 42.84375 61.546875 
Q 39.203125 64.796875 32.078125 64.796875 
z
" id="DejaVuSans-82"/>
       <path d="M 39.40625 66.21875 
Q 28.65625 66.21875 22.328125 58.203125 
Q 16.015625 50.203125 16.015625 36.375 
Q 16.015625 22.609375 22.328125 14.59375 
Q 28.65625 6.59375 39.40625 6.59375 
Q 50.140625 6.59375 56.421875 14.59375 
Q 62.703125 22.609375 62.703125 36.375 
Q 62.703125 50.203125 56.421875 58.203125 
Q 50.140625 66.21875 39.40625 66.21875 
z
M 39.40625 74.21875 
Q 54.734375 74.21875 63.90625 63.9375 
Q 73.09375 53.65625 73.09375 36.375 
Q 73.09375 19.140625 63.90625 8.859375 
Q 54.734375 -1.421875 39.40625 -1.421875 
Q 24.03125 -1.421875 14.8125 8.828125 
Q 5.609375 19.09375 5.609375 36.375 
Q 5.609375 53.65625 14.8125 63.9375 
Q 24.03125 74.21875 39.40625 74.21875 
z
" id="DejaVuSans-79"/>
      </defs>
      <g transform="translate(141.248043 808.412315)rotate(-30)scale(0.14 -0.14)">
       <use xlink:href="#DejaVuSans-49"/>
       <use x="63.623047" xlink:href="#DejaVuSans-117"/>
       <use x="127.001953" xlink:href="#DejaVuSans-115"/>
       <use x="179.101562" xlink:href="#DejaVuSans-101"/>
       <use x="240.625" xlink:href="#DejaVuSans-114"/>
       <use x="281.738281" xlink:href="#DejaVuSans-95"/>
       <use x="331.738281" xlink:href="#DejaVuSans-82"/>
       <use x="401.220703" xlink:href="#DejaVuSans-79"/>
      </g>
     </g>
    </g>
    <g id="xtick_2">
     <g id="line2d_3">
      <path clip-path="url(#p7e10863a15)" d="M 257.081229 758.818144 
L 257.081229 49.12 
" style="fill:none;stroke:#808080;stroke-dasharray:0.925,0.4;stroke-dashoffset:0;stroke-width:0.25;"/>
     </g>
     <g id="line2d_4">
      <g>
       <use style="stroke:#000000;stroke-width:0.8;" x="257.081229" xlink:href="#m94ed9feb5b" y="758.818144"/>
      </g>
     </g>
     <g id="text_2">
      <!-- 100users_RO -->
      <defs>
       <path d="M 31.78125 66.40625 
Q 24.171875 66.40625 20.328125 58.90625 
Q 16.5 51.421875 16.5 36.375 
Q 16.5 21.390625 20.328125 13.890625 
Q 24.171875 6.390625 31.78125 6.390625 
Q 39.453125 6.390625 43.28125 13.890625 
Q 47.125 21.390625 47.125 36.375 
Q 47.125 51.421875 43.28125 58.90625 
Q 39.453125 66.40625 31.78125 66.40625 
z
M 31.78125 74.21875 
Q 44.046875 74.21875 50.515625 64.515625 
Q 56.984375 54.828125 56.984375 36.375 
Q 56.984375 17.96875 50.515625 8.265625 
Q 44.046875 -1.421875 31.78125 -1.421875 
Q 19.53125 -1.421875 13.0625 8.265625 
Q 6.59375 17.96875 6.59375 36.375 
Q 6.59375 54.828125 13.0625 64.515625 
Q 19.53125 74.21875 31.78125 74.21875 
z
" id="DejaVuSans-48"/>
      </defs>
      <g transform="translate(218.886849 820.966377)rotate(-30)scale(0.14 -0.14)">
       <use xlink:href="#DejaVuSans-49"/>
       <use x="63.623047" xlink:href="#DejaVuSans-48"/>
       <use x="127.246094" xlink:href="#DejaVuSans-48"/>
       <use x="190.869141" xlink:href="#DejaVuSans-117"/>
       <use x="254.248047" xlink:href="#DejaVuSans-115"/>
       <use x="306.347656" xlink:href="#DejaVuSans-101"/>
       <use x="367.871094" xlink:href="#DejaVuSans-114"/>
       <use x="408.984375" xlink:href="#DejaVuSans-115"/>
       <use x="461.083984" xlink:href="#DejaVuSans-95"/>
       <use x="511.083984" xlink:href="#DejaVuSans-82"/>
       <use x="580.566406" xlink:href="#DejaVuSans-79"/>
      </g>
     </g>
    </g>
    <g id="xtick_3">
     <g id="line2d_5">
      <path clip-path="url(#p7e10863a15)" d="M 345.592172 758.818144 
L 345.592172 49.12 
" style="fill:none;stroke:#808080;stroke-dasharray:0.925,0.4;stroke-dashoffset:0;stroke-width:0.25;"/>
     </g>
     <g id="line2d_6">
      <g>
       <use style="stroke:#000000;stroke-width:0.8;" x="345.592172" xlink:href="#m94ed9feb5b" y="758.818144"/>
      </g>
     </g>
     <g id="text_3">
      <!-- 100users_RW -->
      <defs>
       <path d="M 3.328125 72.90625 
L 13.28125 72.90625 
L 28.609375 11.28125 
L 43.890625 72.90625 
L 54.984375 72.90625 
L 70.3125 11.28125 
L 85.59375 72.90625 
L 95.609375 72.90625 
L 77.296875 0 
L 64.890625 0 
L 49.515625 63.28125 
L 33.984375 0 
L 21.578125 0 
z
" id="DejaVuSans-87"/>
      </defs>
      <g transform="translate(306.179673 822.37294)rotate(-30)scale(0.14 -0.14)">
       <use xlink:href="#DejaVuSans-49"/>
       <use x="63.623047" xlink:href="#DejaVuSans-48"/>
       <use x="127.246094" xlink:href="#DejaVuSans-48"/>
       <use x="190.869141" xlink:href="#DejaVuSans-117"/>
       <use x="254.248047" xlink:href="#DejaVuSans-115"/>
       <use x="306.347656" xlink:href="#DejaVuSans-101"/>
       <use x="367.871094" xlink:href="#DejaVuSans-114"/>
       <use x="408.984375" xlink:href="#DejaVuSans-115"/>
       <use x="461.083984" xlink:href="#DejaVuSans-95"/>
       <use x="511.083984" xlink:href="#DejaVuSans-82"/>
       <use x="580.503906" xlink:href="#DejaVuSans-87"/>
      </g>
     </g>
    </g>
    <g id="xtick_4">
     <g id="line2d_7">
      <path clip-path="url(#p7e10863a15)" d="M 434.103114 758.818144 
L 434.103114 49.12 
" style="fill:none;stroke:#808080;stroke-dasharray:0.925,0.4;stroke-dashoffset:0;stroke-width:0.25;"/>
     </g>
     <g id="line2d_8">
      <g>
       <use style="stroke:#000000;stroke-width:0.8;" x="434.103114" xlink:href="#m94ed9feb5b" y="758.818144"/>
      </g>
     </g>
     <g id="text_4">
      <!-- 250users_RO -->
      <defs>
       <path d="M 19.1875 8.296875 
L 53.609375 8.296875 
L 53.609375 0 
L 7.328125 0 
L 7.328125 8.296875 
Q 12.9375 14.109375 22.625 23.890625 
Q 32.328125 33.6875 34.8125 36.53125 
Q 39.546875 41.84375 41.421875 45.53125 
Q 43.3125 49.21875 43.3125 52.78125 
Q 43.3125 58.59375 39.234375 62.25 
Q 35.15625 65.921875 28.609375 65.921875 
Q 23.96875 65.921875 18.8125 64.3125 
Q 13.671875 62.703125 7.8125 59.421875 
L 7.8125 69.390625 
Q 13.765625 71.78125 18.9375 73 
Q 24.125 74.21875 28.421875 74.21875 
Q 39.75 74.21875 46.484375 68.546875 
Q 53.21875 62.890625 53.21875 53.421875 
Q 53.21875 48.921875 51.53125 44.890625 
Q 49.859375 40.875 45.40625 35.40625 
Q 44.1875 33.984375 37.640625 27.21875 
Q 31.109375 20.453125 19.1875 8.296875 
z
" id="DejaVuSans-50"/>
       <path d="M 10.796875 72.90625 
L 49.515625 72.90625 
L 49.515625 64.59375 
L 19.828125 64.59375 
L 19.828125 46.734375 
Q 21.96875 47.46875 24.109375 47.828125 
Q 26.265625 48.1875 28.421875 48.1875 
Q 40.625 48.1875 47.75 41.5 
Q 54.890625 34.8125 54.890625 23.390625 
Q 54.890625 11.625 47.5625 5.09375 
Q 40.234375 -1.421875 26.90625 -1.421875 
Q 22.3125 -1.421875 17.546875 -0.640625 
Q 12.796875 0.140625 7.71875 1.703125 
L 7.71875 11.625 
Q 12.109375 9.234375 16.796875 8.0625 
Q 21.484375 6.890625 26.703125 6.890625 
Q 35.15625 6.890625 40.078125 11.328125 
Q 45.015625 15.765625 45.015625 23.390625 
Q 45.015625 31 40.078125 35.4375 
Q 35.15625 39.890625 26.703125 39.890625 
Q 22.75 39.890625 18.8125 39.015625 
Q 14.890625 38.140625 10.796875 36.28125 
z
" id="DejaVuSans-53"/>
      </defs>
      <g transform="translate(395.908735 820.966377)rotate(-30)scale(0.14 -0.14)">
       <use xlink:href="#DejaVuSans-50"/>
       <use x="63.623047" xlink:href="#DejaVuSans-53"/>
       <use x="127.246094" xlink:href="#DejaVuSans-48"/>
       <use x="190.869141" xlink:href="#DejaVuSans-117"/>
       <use x="254.248047" xlink:href="#DejaVuSans-115"/>
       <use x="306.347656" xlink:href="#DejaVuSans-101"/>
       <use x="367.871094" xlink:href="#DejaVuSans-114"/>
       <use x="408.984375" xlink:href="#DejaVuSans-115"/>
       <use x="461.083984" xlink:href="#DejaVuSans-95"/>
       <use x="511.083984" xlink:href="#DejaVuSans-82"/>
       <use x="580.566406" xlink:href="#DejaVuSans-79"/>
      </g>
     </g>
    </g>
    <g id="xtick_5">
     <g id="line2d_9">
      <path clip-path="url(#p7e10863a15)" d="M 522.614057 758.818144 
L 522.614057 49.12 
" style="fill:none;stroke:#808080;stroke-dasharray:0.925,0.4;stroke-dashoffset:0;stroke-width:0.25;"/>
     </g>
     <g id="line2d_10">
      <g>
       <use style="stroke:#000000;stroke-width:0.8;" x="522.614057" xlink:href="#m94ed9feb5b" y="758.818144"/>
      </g>
     </g>
     <g id="text_5">
      <!-- 250users_RW -->
      <g transform="translate(483.201559 822.37294)rotate(-30)scale(0.14 -0.14)">
       <use xlink:href="#DejaVuSans-50"/>
       <use x="63.623047" xlink:href="#DejaVuSans-53"/>
       <use x="127.246094" xlink:href="#DejaVuSans-48"/>
       <use x="190.869141" xlink:href="#DejaVuSans-117"/>
       <use x="254.248047" xlink:href="#DejaVuSans-115"/>
       <use x="306.347656" xlink:href="#DejaVuSans-101"/>
       <use x="367.871094" xlink:href="#DejaVuSans-114"/>
       <use x="408.984375" xlink:href="#DejaVuSans-115"/>
       <use x="461.083984" xlink:href="#DejaVuSans-95"/>
       <use x="511.083984" xlink:href="#DejaVuSans-82"/>
       <use x="580.503906" xlink:href="#DejaVuSans-87"/>
      </g>
     </g>
    </g>
    <g id="xtick_6">
     <g id="line2d_11">
      <path clip-path="url(#p7e10863a15)" d="M 611.125 758.818144 
L 611.125 49.12 
" style="fill:none;stroke:#808080;stroke-dasharray:0.925,0.4;stroke-dashoffset:0;stroke-width:0.25;"/>
     </g>
     <g id="line2d_12">
      <g>
       <use style="stroke:#000000;stroke-width:0.8;" x="611.125" xlink:href="#m94ed9feb5b" y="758.818144"/>
      </g>
     </g>
     <g id="text_6">
      <!-- 500users_RO -->
      <g transform="translate(572.93062 820.966377)rotate(-30)scale(0.14 -0.14)">
       <use xlink:href="#DejaVuSans-53"/>
       <use x="63.623047" xlink:href="#DejaVuSans-48"/>
       <use x="127.246094" xlink:href="#DejaVuSans-48"/>
       <use x="190.869141" xlink:href="#DejaVuSans-117"/>
       <use x="254.248047" xlink:href="#DejaVuSans-115"/>
       <use x="306.347656" xlink:href="#DejaVuSans-101"/>
       <use x="367.871094" xlink:href="#DejaVuSans-114"/>
       <use x="408.984375" xlink:href="#DejaVuSans-115"/>
       <use x="461.083984" xlink:href="#DejaVuSans-95"/>
       <use x="511.083984" xlink:href="#DejaVuSans-82"/>
       <use x="580.566406" xlink:href="#DejaVuSans-79"/>
      </g>
     </g>
    </g>
    <g id="xtick_7">
     <g id="line2d_13">
      <path clip-path="url(#p7e10863a15)" d="M 699.635943 758.818144 
L 699.635943 49.12 
" style="fill:none;stroke:#808080;stroke-dasharray:0.925,0.4;stroke-dashoffset:0;stroke-width:0.25;"/>
     </g>
     <g id="line2d_14">
      <g>
       <use style="stroke:#000000;stroke-width:0.8;" x="699.635943" xlink:href="#m94ed9feb5b" y="758.818144"/>
      </g>
     </g>
     <g id="text_7">
      <!-- 500users_RW -->
      <g transform="translate(660.223444 822.37294)rotate(-30)scale(0.14 -0.14)">
       <use xlink:href="#DejaVuSans-53"/>
       <use x="63.623047" xlink:href="#DejaVuSans-48"/>
       <use x="127.246094" xlink:href="#DejaVuSans-48"/>
       <use x="190.869141" xlink:href="#DejaVuSans-117"/>
       <use x="254.248047" xlink:href="#DejaVuSans-115"/>
       <use x="306.347656" xlink:href="#DejaVuSans-101"/>
       <use x="367.871094" xlink:href="#DejaVuSans-114"/>
       <use x="408.984375" xlink:href="#DejaVuSans-115"/>
       <use x="461.083984" xlink:href="#DejaVuSans-95"/>
       <use x="511.083984" xlink:href="#DejaVuSans-82"/>
       <use x="580.503906" xlink:href="#DejaVuSans-87"/>
      </g>
     </g>
    </g>
    <g id="xtick_8">
     <g id="line2d_15">
      <path clip-path="url(#p7e10863a15)" d="M 788.146886 758.818144 
L 788.146886 49.12 
" style="fill:none;stroke:#808080;stroke-dasharray:0.925,0.4;stroke-dashoffset:0;stroke-width:0.25;"/>
     </g>
     <g id="line2d_16">
      <g>
       <use style="stroke:#000000;stroke-width:0.8;" x="788.146886" xlink:href="#m94ed9feb5b" y="758.818144"/>
      </g>
     </g>
     <g id="text_8">
      <!-- 750users_RO -->
      <defs>
       <path d="M 8.203125 72.90625 
L 55.078125 72.90625 
L 55.078125 68.703125 
L 28.609375 0 
L 18.3125 0 
L 43.21875 64.59375 
L 8.203125 64.59375 
z
" id="DejaVuSans-55"/>
      </defs>
      <g transform="translate(749.952506 820.966377)rotate(-30)scale(0.14 -0.14)">
       <use xlink:href="#DejaVuSans-55"/>
       <use x="63.623047" xlink:href="#DejaVuSans-53"/>
       <use x="127.246094" xlink:href="#DejaVuSans-48"/>
       <use x="190.869141" xlink:href="#DejaVuSans-117"/>
       <use x="254.248047" xlink:href="#DejaVuSans-115"/>
       <use x="306.347656" xlink:href="#DejaVuSans-101"/>
       <use x="367.871094" xlink:href="#DejaVuSans-114"/>
       <use x="408.984375" xlink:href="#DejaVuSans-115"/>
       <use x="461.083984" xlink:href="#DejaVuSans-95"/>
       <use x="511.083984" xlink:href="#DejaVuSans-82"/>
       <use x="580.566406" xlink:href="#DejaVuSans-79"/>
      </g>
     </g>
    </g>
    <g id="xtick_9">
     <g id="line2d_17">
      <path clip-path="url(#p7e10863a15)" d="M 876.657828 758.818144 
L 876.657828 49.12 
" style="fill:none;stroke:#808080;stroke-dasharray:0.925,0.4;stroke-dashoffset:0;stroke-width:0.25;"/>
     </g>
     <g id="line2d_18">
      <g>
       <use style="stroke:#000000;stroke-width:0.8;" x="876.657828" xlink:href="#m94ed9feb5b" y="758.818144"/>
      </g>
     </g>
     <g id="text_9">
      <!-- 750users_RW -->
      <g transform="translate(837.24533 822.37294)rotate(-30)scale(0.14 -0.14)">
       <use xlink:href="#DejaVuSans-55"/>
       <use x="63.623047" xlink:href="#DejaVuSans-53"/>
       <use x="127.246094" xlink:href="#DejaVuSans-48"/>
       <use x="190.869141" xlink:href="#DejaVuSans-117"/>
       <use x="254.248047" xlink:href="#DejaVuSans-115"/>
       <use x="306.347656" xlink:href="#DejaVuSans-101"/>
       <use x="367.871094" xlink:href="#DejaVuSans-114"/>
       <use x="408.984375" xlink:href="#DejaVuSans-115"/>
       <use x="461.083984" xlink:href="#DejaVuSans-95"/>
       <use x="511.083984" xlink:href="#DejaVuSans-82"/>
       <use x="580.503906" xlink:href="#DejaVuSans-87"/>
      </g>
     </g>
    </g>
    <g id="xtick_10">
     <g id="line2d_19">
      <path clip-path="url(#p7e10863a15)" d="M 965.168771 758.818144 
L 965.168771 49.12 
" style="fill:none;stroke:#808080;stroke-dasharray:0.925,0.4;stroke-dashoffset:0;stroke-width:0.25;"/>
     </g>
     <g id="line2d_20">
      <g>
       <use style="stroke:#000000;stroke-width:0.8;" x="965.168771" xlink:href="#m94ed9feb5b" y="758.818144"/>
      </g>
     </g>
     <g id="text_10">
      <!-- 1000users_RO -->
      <g transform="translate(923.117331 825.420127)rotate(-30)scale(0.14 -0.14)">
       <use xlink:href="#DejaVuSans-49"/>
       <use x="63.623047" xlink:href="#DejaVuSans-48"/>
       <use x="127.246094" xlink:href="#DejaVuSans-48"/>
       <use x="190.869141" xlink:href="#DejaVuSans-48"/>
       <use x="254.492188" xlink:href="#DejaVuSans-117"/>
       <use x="317.871094" xlink:href="#DejaVuSans-115"/>
       <use x="369.970703" xlink:href="#DejaVuSans-101"/>
       <use x="431.494141" xlink:href="#DejaVuSans-114"/>
       <use x="472.607422" xlink:href="#DejaVuSans-115"/>
       <use x="524.707031" xlink:href="#DejaVuSans-95"/>
       <use x="574.707031" xlink:href="#DejaVuSans-82"/>
       <use x="644.189453" xlink:href="#DejaVuSans-79"/>
      </g>
     </g>
    </g>
    <g id="xtick_11">
     <g id="line2d_21">
      <path clip-path="url(#p7e10863a15)" d="M 1053.679714 758.818144 
L 1053.679714 49.12 
" style="fill:none;stroke:#808080;stroke-dasharray:0.925,0.4;stroke-dashoffset:0;stroke-width:0.25;"/>
     </g>
     <g id="line2d_22">
      <g>
       <use style="stroke:#000000;stroke-width:0.8;" x="1053.679714" xlink:href="#m94ed9feb5b" y="758.818144"/>
      </g>
     </g>
     <g id="text_11">
      <!-- 1000users_RW -->
      <g transform="translate(1010.410154 826.82669)rotate(-30)scale(0.14 -0.14)">
       <use xlink:href="#DejaVuSans-49"/>
       <use x="63.623047" xlink:href="#DejaVuSans-48"/>
       <use x="127.246094" xlink:href="#DejaVuSans-48"/>
       <use x="190.869141" xlink:href="#DejaVuSans-48"/>
       <use x="254.492188" xlink:href="#DejaVuSans-117"/>
       <use x="317.871094" xlink:href="#DejaVuSans-115"/>
       <use x="369.970703" xlink:href="#DejaVuSans-101"/>
       <use x="431.494141" xlink:href="#DejaVuSans-114"/>
       <use x="472.607422" xlink:href="#DejaVuSans-115"/>
       <use x="524.707031" xlink:href="#DejaVuSans-95"/>
       <use x="574.707031" xlink:href="#DejaVuSans-82"/>
       <use x="644.126953" xlink:href="#DejaVuSans-87"/>
      </g>
     </g>
    </g>
    <g id="text_12">
     <!-- Test Case -->
     <defs>
      <path d="M -0.296875 72.90625 
L 61.375 72.90625 
L 61.375 64.59375 
L 35.5 64.59375 
L 35.5 0 
L 25.59375 0 
L 25.59375 64.59375 
L -0.296875 64.59375 
z
" id="DejaVuSans-84"/>
      <path d="M 18.3125 70.21875 
L 18.3125 54.6875 
L 36.8125 54.6875 
L 36.8125 47.703125 
L 18.3125 47.703125 
L 18.3125 18.015625 
Q 18.3125 11.328125 20.140625 9.421875 
Q 21.96875 7.515625 27.59375 7.515625 
L 36.8125 7.515625 
L 36.8125 0 
L 27.59375 0 
Q 17.1875 0 13.234375 3.875 
Q 9.28125 7.765625 9.28125 18.015625 
L 9.28125 47.703125 
L 2.6875 47.703125 
L 2.6875 54.6875 
L 9.28125 54.6875 
L 9.28125 70.21875 
z
" id="DejaVuSans-116"/>
      <path id="DejaVuSans-32"/>
      <path d="M 64.40625 67.28125 
L 64.40625 56.890625 
Q 59.421875 61.53125 53.78125 63.8125 
Q 48.140625 66.109375 41.796875 66.109375 
Q 29.296875 66.109375 22.65625 58.46875 
Q 16.015625 50.828125 16.015625 36.375 
Q 16.015625 21.96875 22.65625 14.328125 
Q 29.296875 6.6875 41.796875 6.6875 
Q 48.140625 6.6875 53.78125 8.984375 
Q 59.421875 11.28125 64.40625 15.921875 
L 64.40625 5.609375 
Q 59.234375 2.09375 53.4375 0.328125 
Q 47.65625 -1.421875 41.21875 -1.421875 
Q 24.65625 -1.421875 15.125 8.703125 
Q 5.609375 18.84375 5.609375 36.375 
Q 5.609375 53.953125 15.125 64.078125 
Q 24.65625 74.21875 41.21875 74.21875 
Q 47.75 74.21875 53.53125 72.484375 
Q 59.328125 70.75 64.40625 67.28125 
z
" id="DejaVuSans-67"/>
      <path d="M 34.28125 27.484375 
Q 23.390625 27.484375 19.1875 25 
Q 14.984375 22.515625 14.984375 16.5 
Q 14.984375 11.71875 18.140625 8.90625 
Q 21.296875 6.109375 26.703125 6.109375 
Q 34.1875 6.109375 38.703125 11.40625 
Q 43.21875 16.703125 43.21875 25.484375 
L 43.21875 27.484375 
z
M 52.203125 31.203125 
L 52.203125 0 
L 43.21875 0 
L 43.21875 8.296875 
Q 40.140625 3.328125 35.546875 0.953125 
Q 30.953125 -1.421875 24.3125 -1.421875 
Q 15.921875 -1.421875 10.953125 3.296875 
Q 6 8.015625 6 15.921875 
Q 6 25.140625 12.171875 29.828125 
Q 18.359375 34.515625 30.609375 34.515625 
L 43.21875 34.515625 
L 43.21875 35.40625 
Q 43.21875 41.609375 39.140625 45 
Q 35.0625 48.390625 27.6875 48.390625 
Q 23 48.390625 18.546875 47.265625 
Q 14.109375 46.140625 10.015625 43.890625 
L 10.015625 52.203125 
Q 14.9375 54.109375 19.578125 55.046875 
Q 24.21875 56 28.609375 56 
Q 40.484375 56 46.34375 49.84375 
Q 52.203125 43.703125 52.203125 31.203125 
z
" id="DejaVuSans-97"/>
     </defs>
     <g transform="translate(571.9125 845.842885)scale(0.16 -0.16)">
      <use xlink:href="#DejaVuSans-84"/>
      <use x="60.818359" xlink:href="#DejaVuSans-101"/>
      <use x="122.341797" xlink:href="#DejaVuSans-115"/>
      <use x="174.441406" xlink:href="#DejaVuSans-116"/>
      <use x="213.650391" xlink:href="#DejaVuSans-32"/>
      <use x="245.4375" xlink:href="#DejaVuSans-67"/>
      <use x="315.261719" xlink:href="#DejaVuSans-97"/>
      <use x="376.541016" xlink:href="#DejaVuSans-115"/>
      <use x="428.640625" xlink:href="#DejaVuSans-101"/>
     </g>
    </g>
   </g>
   <g id="matplotlib.axis_2">
    <g id="ytick_1">
     <g id="line2d_23">
      <path clip-path="url(#p7e10863a15)" d="M 85.37 758.818144 
L 1136.88 758.818144 
" style="fill:none;stroke:#808080;stroke-dasharray:0.925,0.4;stroke-dashoffset:0;stroke-width:0.25;"/>
     </g>
     <g id="line2d_24">
      <defs>
       <path d="M 0 0 
L -3.5 0 
" id="m1196967539" style="stroke:#000000;stroke-width:0.8;"/>
      </defs>
      <g>
       <use style="stroke:#000000;stroke-width:0.8;" x="85.37" xlink:href="#m1196967539" y="758.818144"/>
      </g>
     </g>
     <g id="text_13">
      <!-- 0 -->
      <g transform="translate(69.4625 764.137051)scale(0.14 -0.14)">
       <use xlink:href="#DejaVuSans-48"/>
      </g>
     </g>
    </g>
    <g id="ytick_2">
     <g id="line2d_25">
      <path clip-path="url(#p7e10863a15)" d="M 85.37 664.942728 
L 1136.88 664.942728 
" style="fill:none;stroke:#808080;stroke-dasharray:0.925,0.4;stroke-dashoffset:0;stroke-width:0.25;"/>
     </g>
     <g id="line2d_26">
      <g>
       <use style="stroke:#000000;stroke-width:0.8;" x="85.37" xlink:href="#m1196967539" y="664.942728"/>
      </g>
     </g>
     <g id="text_14">
      <!-- 2500 -->
      <g transform="translate(42.74 670.261635)scale(0.14 -0.14)">
       <use xlink:href="#DejaVuSans-50"/>
       <use x="63.623047" xlink:href="#DejaVuSans-53"/>
       <use x="127.246094" xlink:href="#DejaVuSans-48"/>
       <use x="190.869141" xlink:href="#DejaVuSans-48"/>
      </g>
     </g>
    </g>
    <g id="ytick_3">
     <g id="line2d_27">
      <path clip-path="url(#p7e10863a15)" d="M 85.37 571.067313 
L 1136.88 571.067313 
" style="fill:none;stroke:#808080;stroke-dasharray:0.925,0.4;stroke-dashoffset:0;stroke-width:0.25;"/>
     </g>
     <g id="line2d_28">
      <g>
       <use style="stroke:#000000;stroke-width:0.8;" x="85.37" xlink:href="#m1196967539" y="571.067313"/>
      </g>
     </g>
     <g id="text_15">
      <!-- 5000 -->
      <g transform="translate(42.74 576.386219)scale(0.14 -0.14)">
       <use xlink:href="#DejaVuSans-53"/>
       <use x="63.623047" xlink:href="#DejaVuSans-48"/>
       <use x="127.246094" xlink:href="#DejaVuSans-48"/>
       <use x="190.869141" xlink:href="#DejaVuSans-48"/>
      </g>
     </g>
    </g>
    <g id="ytick_4">
     <g id="line2d_29">
      <path clip-path="url(#p7e10863a15)" d="M 85.37 477.191897 
L 1136.88 477.191897 
" style="fill:none;stroke:#808080;stroke-dasharray:0.925,0.4;stroke-dashoffset:0;stroke-width:0.25;"/>
     </g>
     <g id="line2d_30">
      <g>
       <use style="stroke:#000000;stroke-width:0.8;" x="85.37" xlink:href="#m1196967539" y="477.191897"/>
      </g>
     </g>
     <g id="text_16">
      <!-- 7500 -->
      <g transform="translate(42.74 482.510803)scale(0.14 -0.14)">
       <use xlink:href="#DejaVuSans-55"/>
       <use x="63.623047" xlink:href="#DejaVuSans-53"/>
       <use x="127.246094" xlink:href="#DejaVuSans-48"/>
       <use x="190.869141" xlink:href="#DejaVuSans-48"/>
      </g>
     </g>
    </g>
    <g id="ytick_5">
     <g id="line2d_31">
      <path clip-path="url(#p7e10863a15)" d="M 85.37 383.316481 
L 1136.88 383.316481 
" style="fill:none;stroke:#808080;stroke-dasharray:0.925,0.4;stroke-dashoffset:0;stroke-width:0.25;"/>
     </g>
     <g id="line2d_32">
      <g>
       <use style="stroke:#000000;stroke-width:0.8;" x="85.37" xlink:href="#m1196967539" y="383.316481"/>
      </g>
     </g>
     <g id="text_17">
      <!-- 10000 -->
      <g transform="translate(33.8325 388.635387)scale(0.14 -0.14)">
       <use xlink:href="#DejaVuSans-49"/>
       <use x="63.623047" xlink:href="#DejaVuSans-48"/>
       <use x="127.246094" xlink:href="#DejaVuSans-48"/>
       <use x="190.869141" xlink:href="#DejaVuSans-48"/>
       <use x="254.492188" xlink:href="#DejaVuSans-48"/>
      </g>
     </g>
    </g>
    <g id="ytick_6">
     <g id="line2d_33">
      <path clip-path="url(#p7e10863a15)" d="M 85.37 289.441065 
L 1136.88 289.441065 
" style="fill:none;stroke:#808080;stroke-dasharray:0.925,0.4;stroke-dashoffset:0;stroke-width:0.25;"/>
     </g>
     <g id="line2d_34">
      <g>
       <use style="stroke:#000000;stroke-width:0.8;" x="85.37" xlink:href="#m1196967539" y="289.441065"/>
      </g>
     </g>
     <g id="text_18">
      <!-- 12500 -->
      <g transform="translate(33.8325 294.759971)scale(0.14 -0.14)">
       <use xlink:href="#DejaVuSans-49"/>
       <use x="63.623047" xlink:href="#DejaVuSans-50"/>
       <use x="127.246094" xlink:href="#DejaVuSans-53"/>
       <use x="190.869141" xlink:href="#DejaVuSans-48"/>
       <use x="254.492188" xlink:href="#DejaVuSans-48"/>
      </g>
     </g>
    </g>
    <g id="ytick_7">
     <g id="line2d_35">
      <path clip-path="url(#p7e10863a15)" d="M 85.37 195.565649 
L 1136.88 195.565649 
" style="fill:none;stroke:#808080;stroke-dasharray:0.925,0.4;stroke-dashoffset:0;stroke-width:0.25;"/>
     </g>
     <g id="line2d_36">
      <g>
       <use style="stroke:#000000;stroke-width:0.8;" x="85.37" xlink:href="#m1196967539" y="195.565649"/>
      </g>
     </g>
     <g id="text_19">
      <!-- 15000 -->
      <g transform="translate(33.8325 200.884555)scale(0.14 -0.14)">
       <use xlink:href="#DejaVuSans-49"/>
       <use x="63.623047" xlink:href="#DejaVuSans-53"/>
       <use x="127.246094" xlink:href="#DejaVuSans-48"/>
       <use x="190.869141" xlink:href="#DejaVuSans-48"/>
       <use x="254.492188" xlink:href="#DejaVuSans-48"/>
      </g>
     </g>
    </g>
    <g id="ytick_8">
     <g id="line2d_37">
      <path clip-path="url(#p7e10863a15)" d="M 85.37 101.690233 
L 1136.88 101.690233 
" style="fill:none;stroke:#808080;stroke-dasharray:0.925,0.4;stroke-dashoffset:0;stroke-width:0.25;"/>
     </g>
     <g id="line2d_38">
      <g>
       <use style="stroke:#000000;stroke-width:0.8;" x="85.37" xlink:href="#m1196967539" y="101.690233"/>
      </g>
     </g>
     <g id="text_20">
      <!-- 17500 -->
      <g transform="translate(33.8325 107.009139)scale(0.14 -0.14)">
       <use xlink:href="#DejaVuSans-49"/>
       <use x="63.623047" xlink:href="#DejaVuSans-55"/>
       <use x="127.246094" xlink:href="#DejaVuSans-53"/>
       <use x="190.869141" xlink:href="#DejaVuSans-48"/>
       <use x="254.492188" xlink:href="#DejaVuSans-48"/>
      </g>
     </g>
    </g>
    <g id="text_21">
     <!-- Response Time, ms -->
     <defs>
      <path d="M 18.109375 8.203125 
L 18.109375 -20.796875 
L 9.078125 -20.796875 
L 9.078125 54.6875 
L 18.109375 54.6875 
L 18.109375 46.390625 
Q 20.953125 51.265625 25.265625 53.625 
Q 29.59375 56 35.59375 56 
Q 45.5625 56 51.78125 48.09375 
Q 58.015625 40.1875 58.015625 27.296875 
Q 58.015625 14.40625 51.78125 6.484375 
Q 45.5625 -1.421875 35.59375 -1.421875 
Q 29.59375 -1.421875 25.265625 0.953125 
Q 20.953125 3.328125 18.109375 8.203125 
z
M 48.6875 27.296875 
Q 48.6875 37.203125 44.609375 42.84375 
Q 40.53125 48.484375 33.40625 48.484375 
Q 26.265625 48.484375 22.1875 42.84375 
Q 18.109375 37.203125 18.109375 27.296875 
Q 18.109375 17.390625 22.1875 11.75 
Q 26.265625 6.109375 33.40625 6.109375 
Q 40.53125 6.109375 44.609375 11.75 
Q 48.6875 17.390625 48.6875 27.296875 
z
" id="DejaVuSans-112"/>
      <path d="M 30.609375 48.390625 
Q 23.390625 48.390625 19.1875 42.75 
Q 14.984375 37.109375 14.984375 27.296875 
Q 14.984375 17.484375 19.15625 11.84375 
Q 23.34375 6.203125 30.609375 6.203125 
Q 37.796875 6.203125 41.984375 11.859375 
Q 46.1875 17.53125 46.1875 27.296875 
Q 46.1875 37.015625 41.984375 42.703125 
Q 37.796875 48.390625 30.609375 48.390625 
z
M 30.609375 56 
Q 42.328125 56 49.015625 48.375 
Q 55.71875 40.765625 55.71875 27.296875 
Q 55.71875 13.875 49.015625 6.21875 
Q 42.328125 -1.421875 30.609375 -1.421875 
Q 18.84375 -1.421875 12.171875 6.21875 
Q 5.515625 13.875 5.515625 27.296875 
Q 5.515625 40.765625 12.171875 48.375 
Q 18.84375 56 30.609375 56 
z
" id="DejaVuSans-111"/>
      <path d="M 54.890625 33.015625 
L 54.890625 0 
L 45.90625 0 
L 45.90625 32.71875 
Q 45.90625 40.484375 42.875 44.328125 
Q 39.84375 48.1875 33.796875 48.1875 
Q 26.515625 48.1875 22.3125 43.546875 
Q 18.109375 38.921875 18.109375 30.90625 
L 18.109375 0 
L 9.078125 0 
L 9.078125 54.6875 
L 18.109375 54.6875 
L 18.109375 46.1875 
Q 21.34375 51.125 25.703125 53.5625 
Q 30.078125 56 35.796875 56 
Q 45.21875 56 50.046875 50.171875 
Q 54.890625 44.34375 54.890625 33.015625 
z
" id="DejaVuSans-110"/>
      <path d="M 9.421875 54.6875 
L 18.40625 54.6875 
L 18.40625 0 
L 9.421875 0 
z
M 9.421875 75.984375 
L 18.40625 75.984375 
L 18.40625 64.59375 
L 9.421875 64.59375 
z
" id="DejaVuSans-105"/>
      <path d="M 52 44.1875 
Q 55.375 50.25 60.0625 53.125 
Q 64.75 56 71.09375 56 
Q 79.640625 56 84.28125 50.015625 
Q 88.921875 44.046875 88.921875 33.015625 
L 88.921875 0 
L 79.890625 0 
L 79.890625 32.71875 
Q 79.890625 40.578125 77.09375 44.375 
Q 74.3125 48.1875 68.609375 48.1875 
Q 61.625 48.1875 57.5625 43.546875 
Q 53.515625 38.921875 53.515625 30.90625 
L 53.515625 0 
L 44.484375 0 
L 44.484375 32.71875 
Q 44.484375 40.625 41.703125 44.40625 
Q 38.921875 48.1875 33.109375 48.1875 
Q 26.21875 48.1875 22.15625 43.53125 
Q 18.109375 38.875 18.109375 30.90625 
L 18.109375 0 
L 9.078125 0 
L 9.078125 54.6875 
L 18.109375 54.6875 
L 18.109375 46.1875 
Q 21.1875 51.21875 25.484375 53.609375 
Q 29.78125 56 35.6875 56 
Q 41.65625 56 45.828125 52.96875 
Q 50 49.953125 52 44.1875 
z
" id="DejaVuSans-109"/>
      <path d="M 11.71875 12.40625 
L 22.015625 12.40625 
L 22.015625 4 
L 14.015625 -11.625 
L 7.71875 -11.625 
L 11.71875 4 
z
" id="DejaVuSans-44"/>
     </defs>
     <g transform="translate(26.505 482.154072)rotate(-90)scale(0.16 -0.16)">
      <use xlink:href="#DejaVuSans-82"/>
      <use x="69.419922" xlink:href="#DejaVuSans-101"/>
      <use x="130.943359" xlink:href="#DejaVuSans-115"/>
      <use x="183.042969" xlink:href="#DejaVuSans-112"/>
      <use x="246.519531" xlink:href="#DejaVuSans-111"/>
      <use x="307.701172" xlink:href="#DejaVuSans-110"/>
      <use x="371.080078" xlink:href="#DejaVuSans-115"/>
      <use x="423.179688" xlink:href="#DejaVuSans-101"/>
      <use x="484.703125" xlink:href="#DejaVuSans-32"/>
      <use x="516.490234" xlink:href="#DejaVuSans-84"/>
      <use x="577.527344" xlink:href="#DejaVuSans-105"/>
      <use x="605.310547" xlink:href="#DejaVuSans-109"/>
      <use x="702.722656" xlink:href="#DejaVuSans-101"/>
      <use x="764.246094" xlink:href="#DejaVuSans-44"/>
      <use x="796.033203" xlink:href="#DejaVuSans-32"/>
      <use x="827.820312" xlink:href="#DejaVuSans-109"/>
      <use x="925.232422" xlink:href="#DejaVuSans-115"/>
     </g>
    </g>
   </g>
   <g id="patch_25">
    <path d="M 85.37 758.818144 
L 85.37 49.12 
" style="fill:none;stroke:#000000;stroke-linecap:square;stroke-linejoin:miter;stroke-width:0.8;"/>
   </g>
   <g id="patch_26">
    <path d="M 1136.88 758.818144 
L 1136.88 49.12 
" style="fill:none;stroke:#000000;stroke-linecap:square;stroke-linejoin:miter;stroke-width:0.8;"/>
   </g>
   <g id="patch_27">
    <path d="M 85.37 758.818144 
L 1136.88 758.818144 
" style="fill:none;stroke:#000000;stroke-linecap:square;stroke-linejoin:miter;stroke-width:0.8;"/>
   </g>
   <g id="patch_28">
    <path d="M 85.37 49.12 
L 1136.88 49.12 
" style="fill:none;stroke:#000000;stroke-linecap:square;stroke-linejoin:miter;stroke-width:0.8;"/>
   </g>
   <g id="text_22">
    <!-- 470 -->
    <defs>
     <path d="M 37.796875 64.3125 
L 12.890625 25.390625 
L 37.796875 25.390625 
z
M 35.203125 72.90625 
L 47.609375 72.90625 
L 47.609375 25.390625 
L 58.015625 25.390625 
L 58.015625 17.1875 
L 47.609375 17.1875 
L 47.609375 0 
L 37.796875 0 
L 37.796875 17.1875 
L 4.890625 17.1875 
L 4.890625 26.703125 
z
" id="DejaVuSans-52"/>
    </defs>
    <g transform="translate(137.506848 735.258004)scale(0.14 -0.14)">
     <use xlink:href="#DejaVuSans-52"/>
     <use x="63.623047" xlink:href="#DejaVuSans-55"/>
     <use x="127.246094" xlink:href="#DejaVuSans-48"/>
    </g>
   </g>
   <g id="text_23">
    <!-- 2400 -->
    <g transform="translate(221.56404 662.786183)scale(0.14 -0.14)">
     <use xlink:href="#DejaVuSans-50"/>
     <use x="63.623047" xlink:href="#DejaVuSans-52"/>
     <use x="127.246094" xlink:href="#DejaVuSans-48"/>
     <use x="190.869141" xlink:href="#DejaVuSans-48"/>
    </g>
   </g>
   <g id="text_24">
    <!-- 3000 -->
    <defs>
     <path d="M 40.578125 39.3125 
Q 47.65625 37.796875 51.625 33 
Q 55.609375 28.21875 55.609375 21.1875 
Q 55.609375 10.40625 48.1875 4.484375 
Q 40.765625 -1.421875 27.09375 -1.421875 
Q 22.515625 -1.421875 17.65625 -0.515625 
Q 12.796875 0.390625 7.625 2.203125 
L 7.625 11.71875 
Q 11.71875 9.328125 16.59375 8.109375 
Q 21.484375 6.890625 26.8125 6.890625 
Q 36.078125 6.890625 40.9375 10.546875 
Q 45.796875 14.203125 45.796875 21.1875 
Q 45.796875 27.640625 41.28125 31.265625 
Q 36.765625 34.90625 28.71875 34.90625 
L 20.21875 34.90625 
L 20.21875 43.015625 
L 29.109375 43.015625 
Q 36.375 43.015625 40.234375 45.921875 
Q 44.09375 48.828125 44.09375 54.296875 
Q 44.09375 59.90625 40.109375 62.90625 
Q 36.140625 65.921875 28.71875 65.921875 
Q 24.65625 65.921875 20.015625 65.03125 
Q 15.375 64.15625 9.8125 62.3125 
L 9.8125 71.09375 
Q 15.4375 72.65625 20.34375 73.4375 
Q 25.25 74.21875 29.59375 74.21875 
Q 40.828125 74.21875 47.359375 69.109375 
Q 53.90625 64.015625 53.90625 55.328125 
Q 53.90625 49.265625 50.4375 45.09375 
Q 46.96875 40.921875 40.578125 39.3125 
z
" id="DejaVuSans-51"/>
    </defs>
    <g transform="translate(310.074983 640.256083)scale(0.14 -0.14)">
     <use xlink:href="#DejaVuSans-51"/>
     <use x="63.623047" xlink:href="#DejaVuSans-48"/>
     <use x="127.246094" xlink:href="#DejaVuSans-48"/>
     <use x="190.869141" xlink:href="#DejaVuSans-48"/>
    </g>
   </g>
   <g id="text_25">
    <!-- 7600 -->
    <defs>
     <path d="M 33.015625 40.375 
Q 26.375 40.375 22.484375 35.828125 
Q 18.609375 31.296875 18.609375 23.390625 
Q 18.609375 15.53125 22.484375 10.953125 
Q 26.375 6.390625 33.015625 6.390625 
Q 39.65625 6.390625 43.53125 10.953125 
Q 47.40625 15.53125 47.40625 23.390625 
Q 47.40625 31.296875 43.53125 35.828125 
Q 39.65625 40.375 33.015625 40.375 
z
M 52.59375 71.296875 
L 52.59375 62.3125 
Q 48.875 64.0625 45.09375 64.984375 
Q 41.3125 65.921875 37.59375 65.921875 
Q 27.828125 65.921875 22.671875 59.328125 
Q 17.53125 52.734375 16.796875 39.40625 
Q 19.671875 43.65625 24.015625 45.921875 
Q 28.375 48.1875 33.59375 48.1875 
Q 44.578125 48.1875 50.953125 41.515625 
Q 57.328125 34.859375 57.328125 23.390625 
Q 57.328125 12.15625 50.6875 5.359375 
Q 44.046875 -1.421875 33.015625 -1.421875 
Q 20.359375 -1.421875 13.671875 8.265625 
Q 6.984375 17.96875 6.984375 36.375 
Q 6.984375 53.65625 15.1875 63.9375 
Q 23.390625 74.21875 37.203125 74.21875 
Q 40.921875 74.21875 44.703125 73.484375 
Q 48.484375 72.75 52.59375 71.296875 
z
" id="DejaVuSans-54"/>
    </defs>
    <g transform="translate(398.585926 467.525317)scale(0.14 -0.14)">
     <use xlink:href="#DejaVuSans-55"/>
     <use x="63.623047" xlink:href="#DejaVuSans-54"/>
     <use x="127.246094" xlink:href="#DejaVuSans-48"/>
     <use x="190.869141" xlink:href="#DejaVuSans-48"/>
    </g>
   </g>
   <g id="text_26">
    <!-- 9300 -->
    <defs>
     <path d="M 10.984375 1.515625 
L 10.984375 10.5 
Q 14.703125 8.734375 18.5 7.8125 
Q 22.3125 6.890625 25.984375 6.890625 
Q 35.75 6.890625 40.890625 13.453125 
Q 46.046875 20.015625 46.78125 33.40625 
Q 43.953125 29.203125 39.59375 26.953125 
Q 35.25 24.703125 29.984375 24.703125 
Q 19.046875 24.703125 12.671875 31.3125 
Q 6.296875 37.9375 6.296875 49.421875 
Q 6.296875 60.640625 12.9375 67.421875 
Q 19.578125 74.21875 30.609375 74.21875 
Q 43.265625 74.21875 49.921875 64.515625 
Q 56.59375 54.828125 56.59375 36.375 
Q 56.59375 19.140625 48.40625 8.859375 
Q 40.234375 -1.421875 26.421875 -1.421875 
Q 22.703125 -1.421875 18.890625 -0.6875 
Q 15.09375 0.046875 10.984375 1.515625 
z
M 30.609375 32.421875 
Q 37.25 32.421875 41.125 36.953125 
Q 45.015625 41.5 45.015625 49.421875 
Q 45.015625 57.28125 41.125 61.84375 
Q 37.25 66.40625 30.609375 66.40625 
Q 23.96875 66.40625 20.09375 61.84375 
Q 16.21875 57.28125 16.21875 49.421875 
Q 16.21875 41.5 20.09375 36.953125 
Q 23.96875 32.421875 30.609375 32.421875 
z
" id="DejaVuSans-57"/>
    </defs>
    <g transform="translate(487.096869 403.690035)scale(0.14 -0.14)">
     <use xlink:href="#DejaVuSans-57"/>
     <use x="63.623047" xlink:href="#DejaVuSans-51"/>
     <use x="127.246094" xlink:href="#DejaVuSans-48"/>
     <use x="190.869141" xlink:href="#DejaVuSans-48"/>
    </g>
   </g>
   <g id="text_27">
    <!-- 11000 -->
    <g transform="translate(571.154061 339.854752)scale(0.14 -0.14)">
     <use xlink:href="#DejaVuSans-49"/>
     <use x="63.623047" xlink:href="#DejaVuSans-49"/>
     <use x="127.246094" xlink:href="#DejaVuSans-48"/>
     <use x="190.869141" xlink:href="#DejaVuSans-48"/>
     <use x="254.492188" xlink:href="#DejaVuSans-48"/>
    </g>
   </g>
   <g id="text_28">
    <!-- 13000 -->
    <g transform="translate(659.665004 264.754419)scale(0.14 -0.14)">
     <use xlink:href="#DejaVuSans-49"/>
     <use x="63.623047" xlink:href="#DejaVuSans-51"/>
     <use x="127.246094" xlink:href="#DejaVuSans-48"/>
     <use x="190.869141" xlink:href="#DejaVuSans-48"/>
     <use x="254.492188" xlink:href="#DejaVuSans-48"/>
    </g>
   </g>
   <g id="text_29">
    <!-- 11000 -->
    <g transform="translate(748.175947 339.854752)scale(0.14 -0.14)">
     <use xlink:href="#DejaVuSans-49"/>
     <use x="63.623047" xlink:href="#DejaVuSans-49"/>
     <use x="127.246094" xlink:href="#DejaVuSans-48"/>
     <use x="190.869141" xlink:href="#DejaVuSans-48"/>
     <use x="254.492188" xlink:href="#DejaVuSans-48"/>
    </g>
   </g>
   <g id="text_30">
    <!-- 13000 -->
    <g transform="translate(836.68689 264.754419)scale(0.14 -0.14)">
     <use xlink:href="#DejaVuSans-49"/>
     <use x="63.623047" xlink:href="#DejaVuSans-51"/>
     <use x="127.246094" xlink:href="#DejaVuSans-48"/>
     <use x="190.869141" xlink:href="#DejaVuSans-48"/>
     <use x="254.492188" xlink:href="#DejaVuSans-48"/>
    </g>
   </g>
   <g id="text_31">
    <!-- 10000 -->
    <g transform="translate(925.197832 377.404918)scale(0.14 -0.14)">
     <use xlink:href="#DejaVuSans-49"/>
     <use x="63.623047" xlink:href="#DejaVuSans-48"/>
     <use x="127.246094" xlink:href="#DejaVuSans-48"/>
     <use x="190.869141" xlink:href="#DejaVuSans-48"/>
     <use x="254.492188" xlink:href="#DejaVuSans-48"/>
    </g>
   </g>
   <g id="text_32">
    <!-- 11000 -->
    <g transform="translate(1013.708775 339.854752)scale(0.14 -0.14)">
     <use xlink:href="#DejaVuSans-49"/>
     <use x="63.623047" xlink:href="#DejaVuSans-49"/>
     <use x="127.246094" xlink:href="#DejaVuSans-48"/>
     <use x="190.869141" xlink:href="#DejaVuSans-48"/>
     <use x="254.492188" xlink:href="#DejaVuSans-48"/>
    </g>
   </g>
   <g id="text_33">
    <!-- 18000 -->
    <defs>
     <path d="M 31.78125 34.625 
Q 24.75 34.625 20.71875 30.859375 
Q 16.703125 27.09375 16.703125 20.515625 
Q 16.703125 13.921875 20.71875 10.15625 
Q 24.75 6.390625 31.78125 6.390625 
Q 38.8125 6.390625 42.859375 10.171875 
Q 46.921875 13.96875 46.921875 20.515625 
Q 46.921875 27.09375 42.890625 30.859375 
Q 38.875 34.625 31.78125 34.625 
z
M 21.921875 38.8125 
Q 15.578125 40.375 12.03125 44.71875 
Q 8.5 49.078125 8.5 55.328125 
Q 8.5 64.0625 14.71875 69.140625 
Q 20.953125 74.21875 31.78125 74.21875 
Q 42.671875 74.21875 48.875 69.140625 
Q 55.078125 64.0625 55.078125 55.328125 
Q 55.078125 49.078125 51.53125 44.71875 
Q 48 40.375 41.703125 38.8125 
Q 48.828125 37.15625 52.796875 32.3125 
Q 56.78125 27.484375 56.78125 20.515625 
Q 56.78125 9.90625 50.3125 4.234375 
Q 43.84375 -1.421875 31.78125 -1.421875 
Q 19.734375 -1.421875 13.25 4.234375 
Q 6.78125 9.90625 6.78125 20.515625 
Q 6.78125 27.484375 10.78125 32.3125 
Q 14.796875 37.15625 21.921875 38.8125 
z
M 18.3125 54.390625 
Q 18.3125 48.734375 21.84375 45.5625 
Q 25.390625 42.390625 31.78125 42.390625 
Q 38.140625 42.390625 41.71875 45.5625 
Q 45.3125 48.734375 45.3125 54.390625 
Q 45.3125 60.0625 41.71875 63.234375 
Q 38.140625 66.40625 31.78125 66.40625 
Q 25.390625 66.40625 21.84375 63.234375 
Q 18.3125 60.0625 18.3125 54.390625 
z
" id="DejaVuSans-56"/>
    </defs>
    <g transform="translate(164.003725 77.003587)scale(0.14 -0.14)">
     <use xlink:href="#DejaVuSans-49"/>
     <use x="63.623047" xlink:href="#DejaVuSans-56"/>
     <use x="127.246094" xlink:href="#DejaVuSans-48"/>
     <use x="190.869141" xlink:href="#DejaVuSans-48"/>
     <use x="254.492188" xlink:href="#DejaVuSans-48"/>
    </g>
   </g>
   <g id="text_34">
    <!-- 5200 -->
    <g transform="translate(256.968418 557.645717)scale(0.14 -0.14)">
     <use xlink:href="#DejaVuSans-53"/>
     <use x="63.623047" xlink:href="#DejaVuSans-50"/>
     <use x="127.246094" xlink:href="#DejaVuSans-48"/>
     <use x="190.869141" xlink:href="#DejaVuSans-48"/>
    </g>
   </g>
   <g id="text_35">
    <!-- 6900 -->
    <g transform="translate(345.47936 493.810434)scale(0.14 -0.14)">
     <use xlink:href="#DejaVuSans-54"/>
     <use x="63.623047" xlink:href="#DejaVuSans-57"/>
     <use x="127.246094" xlink:href="#DejaVuSans-48"/>
     <use x="190.869141" xlink:href="#DejaVuSans-48"/>
    </g>
   </g>
   <g id="text_36">
    <!-- 5100 -->
    <g transform="translate(433.990303 561.400733)scale(0.14 -0.14)">
     <use xlink:href="#DejaVuSans-53"/>
     <use x="63.623047" xlink:href="#DejaVuSans-49"/>
     <use x="127.246094" xlink:href="#DejaVuSans-48"/>
     <use x="190.869141" xlink:href="#DejaVuSans-48"/>
    </g>
   </g>
   <g id="text_37">
    <!-- 5600 -->
    <g transform="translate(522.501246 542.62565)scale(0.14 -0.14)">
     <use xlink:href="#DejaVuSans-53"/>
     <use x="63.623047" xlink:href="#DejaVuSans-54"/>
     <use x="127.246094" xlink:href="#DejaVuSans-48"/>
     <use x="190.869141" xlink:href="#DejaVuSans-48"/>
    </g>
   </g>
   <g id="text_38">
    <!-- 7100 -->
    <g transform="translate(611.012189 486.300401)scale(0.14 -0.14)">
     <use xlink:href="#DejaVuSans-55"/>
     <use x="63.623047" xlink:href="#DejaVuSans-49"/>
     <use x="127.246094" xlink:href="#DejaVuSans-48"/>
     <use x="190.869141" xlink:href="#DejaVuSans-48"/>
    </g>
   </g>
   <g id="text_39">
    <!-- 8200 -->
    <g transform="translate(699.523131 444.995218)scale(0.14 -0.14)">
     <use xlink:href="#DejaVuSans-56"/>
     <use x="63.623047" xlink:href="#DejaVuSans-50"/>
     <use x="127.246094" xlink:href="#DejaVuSans-48"/>
     <use x="190.869141" xlink:href="#DejaVuSans-48"/>
    </g>
   </g>
   <g id="text_40">
    <!-- 350 -->
    <g transform="translate(792.487824 739.764024)scale(0.14 -0.14)">
     <use xlink:href="#DejaVuSans-51"/>
     <use x="63.623047" xlink:href="#DejaVuSans-53"/>
     <use x="127.246094" xlink:href="#DejaVuSans-48"/>
    </g>
   </g>
   <g id="text_41">
    <!-- 660 -->
    <g transform="translate(880.998767 728.123472)scale(0.14 -0.14)">
     <use xlink:href="#DejaVuSans-54"/>
     <use x="63.623047" xlink:href="#DejaVuSans-54"/>
     <use x="127.246094" xlink:href="#DejaVuSans-48"/>
    </g>
   </g>
   <g id="text_42">
    <!-- 1900 -->
    <g transform="translate(965.05596 681.561266)scale(0.14 -0.14)">
     <use xlink:href="#DejaVuSans-49"/>
     <use x="63.623047" xlink:href="#DejaVuSans-57"/>
     <use x="127.246094" xlink:href="#DejaVuSans-48"/>
     <use x="190.869141" xlink:href="#DejaVuSans-48"/>
    </g>
   </g>
   <g id="text_43">
    <!-- 3500 -->
    <g transform="translate(1053.566902 621.481)scale(0.14 -0.14)">
     <use xlink:href="#DejaVuSans-51"/>
     <use x="63.623047" xlink:href="#DejaVuSans-53"/>
     <use x="127.246094" xlink:href="#DejaVuSans-48"/>
     <use x="190.869141" xlink:href="#DejaVuSans-48"/>
    </g>
   </g>
   <g id="text_44">
    <!-- Median Response Time per Test -->
    <defs>
     <path d="M 9.8125 72.90625 
L 24.515625 72.90625 
L 43.109375 23.296875 
L 61.8125 72.90625 
L 76.515625 72.90625 
L 76.515625 0 
L 66.890625 0 
L 66.890625 64.015625 
L 48.09375 14.015625 
L 38.1875 14.015625 
L 19.390625 64.015625 
L 19.390625 0 
L 9.8125 0 
z
" id="DejaVuSans-77"/>
     <path d="M 45.40625 46.390625 
L 45.40625 75.984375 
L 54.390625 75.984375 
L 54.390625 0 
L 45.40625 0 
L 45.40625 8.203125 
Q 42.578125 3.328125 38.25 0.953125 
Q 33.9375 -1.421875 27.875 -1.421875 
Q 17.96875 -1.421875 11.734375 6.484375 
Q 5.515625 14.40625 5.515625 27.296875 
Q 5.515625 40.1875 11.734375 48.09375 
Q 17.96875 56 27.875 56 
Q 33.9375 56 38.25 53.625 
Q 42.578125 51.265625 45.40625 46.390625 
z
M 14.796875 27.296875 
Q 14.796875 17.390625 18.875 11.75 
Q 22.953125 6.109375 30.078125 6.109375 
Q 37.203125 6.109375 41.296875 11.75 
Q 45.40625 17.390625 45.40625 27.296875 
Q 45.40625 37.203125 41.296875 42.84375 
Q 37.203125 48.484375 30.078125 48.484375 
Q 22.953125 48.484375 18.875 42.84375 
Q 14.796875 37.203125 14.796875 27.296875 
z
" id="DejaVuSans-100"/>
    </defs>
    <g transform="translate(322.568125 41.633125)scale(0.36 -0.36)">
     <use xlink:href="#DejaVuSans-77"/>
     <use x="86.279297" xlink:href="#DejaVuSans-101"/>
     <use x="147.802734" xlink:href="#DejaVuSans-100"/>
     <use x="211.279297" xlink:href="#DejaVuSans-105"/>
     <use x="239.0625" xlink:href="#DejaVuSans-97"/>
     <use x="300.341797" xlink:href="#DejaVuSans-110"/>
     <use x="363.720703" xlink:href="#DejaVuSans-32"/>
     <use x="395.507812" xlink:href="#DejaVuSans-82"/>
     <use x="464.927734" xlink:href="#DejaVuSans-101"/>
     <use x="526.451172" xlink:href="#DejaVuSans-115"/>
     <use x="578.550781" xlink:href="#DejaVuSans-112"/>
     <use x="642.027344" xlink:href="#DejaVuSans-111"/>
     <use x="703.208984" xlink:href="#DejaVuSans-110"/>
     <use x="766.587891" xlink:href="#DejaVuSans-115"/>
     <use x="818.6875" xlink:href="#DejaVuSans-101"/>
     <use x="880.210938" xlink:href="#DejaVuSans-32"/>
     <use x="911.998047" xlink:href="#DejaVuSans-84"/>
     <use x="973.035156" xlink:href="#DejaVuSans-105"/>
     <use x="1000.818359" xlink:href="#DejaVuSans-109"/>
     <use x="1098.230469" xlink:href="#DejaVuSans-101"/>
     <use x="1159.753906" xlink:href="#DejaVuSans-32"/>
     <use x="1191.541016" xlink:href="#DejaVuSans-112"/>
     <use x="1255.017578" xlink:href="#DejaVuSans-101"/>
     <use x="1316.541016" xlink:href="#DejaVuSans-114"/>
     <use x="1357.654297" xlink:href="#DejaVuSans-32"/>
     <use x="1389.441406" xlink:href="#DejaVuSans-84"/>
     <use x="1450.259766" xlink:href="#DejaVuSans-101"/>
     <use x="1511.783203" xlink:href="#DejaVuSans-115"/>
     <use x="1563.882812" xlink:href="#DejaVuSans-116"/>
    </g>
   </g>
   <g id="legend_1">
    <g id="patch_29">
     <path d="M 1002.099375 101.41875 
L 1127.08 101.41875 
Q 1129.88 101.41875 1129.88 98.61875 
L 1129.88 58.92 
Q 1129.88 56.12 1127.08 56.12 
L 1002.099375 56.12 
Q 999.299375 56.12 999.299375 58.92 
L 999.299375 98.61875 
Q 999.299375 101.41875 1002.099375 101.41875 
z
" style="fill:#ffffff;opacity:0.8;stroke:#cccccc;stroke-linejoin:miter;"/>
    </g>
    <g id="patch_30">
     <path d="M 1004.899375 72.357813 
L 1032.899375 72.357813 
L 1032.899375 62.557813 
L 1004.899375 62.557813 
z
" style="fill:#8635d5;"/>
    </g>
    <g id="text_45">
     <!-- Kubernetes -->
     <defs>
      <path d="M 9.8125 72.90625 
L 19.671875 72.90625 
L 19.671875 42.09375 
L 52.390625 72.90625 
L 65.09375 72.90625 
L 28.90625 38.921875 
L 67.671875 0 
L 54.6875 0 
L 19.671875 35.109375 
L 19.671875 0 
L 9.8125 0 
z
" id="DejaVuSans-75"/>
      <path d="M 48.6875 27.296875 
Q 48.6875 37.203125 44.609375 42.84375 
Q 40.53125 48.484375 33.40625 48.484375 
Q 26.265625 48.484375 22.1875 42.84375 
Q 18.109375 37.203125 18.109375 27.296875 
Q 18.109375 17.390625 22.1875 11.75 
Q 26.265625 6.109375 33.40625 6.109375 
Q 40.53125 6.109375 44.609375 11.75 
Q 48.6875 17.390625 48.6875 27.296875 
z
M 18.109375 46.390625 
Q 20.953125 51.265625 25.265625 53.625 
Q 29.59375 56 35.59375 56 
Q 45.5625 56 51.78125 48.09375 
Q 58.015625 40.1875 58.015625 27.296875 
Q 58.015625 14.40625 51.78125 6.484375 
Q 45.5625 -1.421875 35.59375 -1.421875 
Q 29.59375 -1.421875 25.265625 0.953125 
Q 20.953125 3.328125 18.109375 8.203125 
L 18.109375 0 
L 9.078125 0 
L 9.078125 75.984375 
L 18.109375 75.984375 
z
" id="DejaVuSans-98"/>
     </defs>
     <g transform="translate(1044.099375 72.357813)scale(0.14 -0.14)">
      <use xlink:href="#DejaVuSans-75"/>
      <use x="65.498047" xlink:href="#DejaVuSans-117"/>
      <use x="128.876953" xlink:href="#DejaVuSans-98"/>
      <use x="192.353516" xlink:href="#DejaVuSans-101"/>
      <use x="253.876953" xlink:href="#DejaVuSans-114"/>
      <use x="294.974609" xlink:href="#DejaVuSans-110"/>
      <use x="358.353516" xlink:href="#DejaVuSans-101"/>
      <use x="419.876953" xlink:href="#DejaVuSans-116"/>
      <use x="459.085938" xlink:href="#DejaVuSans-101"/>
      <use x="520.609375" xlink:href="#DejaVuSans-115"/>
     </g>
    </g>
    <g id="patch_31">
     <path d="M 1004.899375 92.907188 
L 1032.899375 92.907188 
L 1032.899375 83.107188 
L 1004.899375 83.107188 
z
" style="fill:#2dc574;"/>
    </g>
    <g id="text_46">
     <!-- Knative -->
     <defs>
      <path d="M 2.984375 54.6875 
L 12.5 54.6875 
L 29.59375 8.796875 
L 46.6875 54.6875 
L 56.203125 54.6875 
L 35.6875 0 
L 23.484375 0 
z
" id="DejaVuSans-118"/>
     </defs>
     <g transform="translate(1044.099375 92.907188)scale(0.14 -0.14)">
      <use xlink:href="#DejaVuSans-75"/>
      <use x="65.576172" xlink:href="#DejaVuSans-110"/>
      <use x="128.955078" xlink:href="#DejaVuSans-97"/>
      <use x="190.234375" xlink:href="#DejaVuSans-116"/>
      <use x="229.443359" xlink:href="#DejaVuSans-105"/>
      <use x="257.226562" xlink:href="#DejaVuSans-118"/>
      <use x="316.40625" xlink:href="#DejaVuSans-101"/>
     </g>
    </g>
   </g>
  </g>
 </g>
 <defs>
  <clipPath id="p7e10863a15">
   <rect height="709.698144" width="1051.51" x="85.37" y="49.12"/>
  </clipPath>
 </defs>
</svg>
